<?xml version="1.0" encoding="UTF-8"?>

<svg version="1.2" baseProfile="tiny" width="43.03mm" height="17.21mm" viewBox="3222 19295 4303 1721" preserveAspectRatio="xMidYMid" fill-rule="evenodd" stroke-width="28.222" stroke-linejoin="round" xmlns="http://www.w3.org/2000/svg" xmlns:ooo="http://xml.openoffice.org/svg/export" xmlns:xlink="http://www.w3.org/1999/xlink" xml:space="preserve">
 <defs class="ClipPathGroup">
  <clipPath id="presentation_clip_path" clipPathUnits="userSpaceOnUse">
   <rect x="3222" y="19295" width="4303" height="1721"/>
  </clipPath>
 </defs>
 <defs class="TextShapeIndex">
  <g ooo:slide="id1" ooo:id-list="id3 id4 id5 id6 id7 id8"/>
 </defs>
 <defs class="EmbeddedBulletChars">
  <g id="bullet-char-template(57356)" transform="scale(0.00048828125,-0.00048828125)">
   <path d="M 580,1141 L 1163,571 580,0 -4,571 580,1141 Z"/>
  </g>
  <g id="bullet-char-template(57354)" transform="scale(0.00048828125,-0.00048828125)">
   <path d="M 8,1128 L 1137,1128 1137,0 8,0 8,1128 Z"/>
  </g>
  <g id="bullet-char-template(10146)" transform="scale(0.00048828125,-0.00048828125)">
   <path d="M 174,0 L 602,739 174,1481 1456,739 174,0 Z M 1358,739 L 309,1346 659,739 1358,739 Z"/>
  </g>
  <g id="bullet-char-template(10132)" transform="scale(0.00048828125,-0.00048828125)">
   <path d="M 2015,739 L 1276,0 717,0 1260,543 174,543 174,936 1260,936 717,1481 1274,1481 2015,739 Z"/>
  </g>
  <g id="bullet-char-template(10007)" transform="scale(0.00048828125,-0.00048828125)">
   <path d="M 0,-2 C -7,14 -16,27 -25,37 L 356,567 C 262,823 215,952 215,954 215,979 228,992 255,992 264,992 276,990 289,987 310,991 331,999 354,1012 L 381,999 492,748 772,1049 836,1024 860,1049 C 881,1039 901,1025 922,1006 886,937 835,863 770,784 769,783 710,716 594,584 L 774,223 C 774,196 753,168 711,139 L 727,119 C 717,90 699,76 672,76 641,76 570,178 457,381 L 164,-76 C 142,-110 111,-127 72,-127 30,-127 9,-110 8,-76 1,-67 -2,-52 -2,-32 -2,-23 -1,-13 0,-2 Z"/>
  </g>
  <g id="bullet-char-template(10004)" transform="scale(0.00048828125,-0.00048828125)">
   <path d="M 285,-33 C 182,-33 111,30 74,156 52,228 41,333 41,471 41,549 55,616 82,672 116,743 169,778 240,778 293,778 328,747 346,684 L 369,508 C 377,444 397,411 428,410 L 1163,1116 C 1174,1127 1196,1133 1229,1133 1271,1133 1292,1118 1292,1087 L 1292,965 C 1292,929 1282,901 1262,881 L 442,47 C 390,-6 338,-33 285,-33 Z"/>
  </g>
  <g id="bullet-char-template(9679)" transform="scale(0.00048828125,-0.00048828125)">
   <path d="M 813,0 C 632,0 489,54 383,161 276,268 223,411 223,592 223,773 276,916 383,1023 489,1130 632,1184 813,1184 992,1184 1136,1130 1245,1023 1353,916 1407,772 1407,592 1407,412 1353,268 1245,161 1136,54 992,0 813,0 Z"/>
  </g>
  <g id="bullet-char-template(8226)" transform="scale(0.00048828125,-0.00048828125)">
   <path d="M 346,457 C 273,457 209,483 155,535 101,586 74,649 74,723 74,796 101,859 155,911 209,963 273,989 346,989 419,989 480,963 531,910 582,859 608,796 608,723 608,648 583,586 532,535 482,483 420,457 346,457 Z"/>
  </g>
  <g id="bullet-char-template(8211)" transform="scale(0.00048828125,-0.00048828125)">
   <path d="M -4,459 L 1135,459 1135,606 -4,606 -4,459 Z"/>
  </g>
 </defs>
 <defs class="TextEmbeddedBitmaps"/>
 <g class="SlideGroup">
  <g>
   <g id="id1" class="Slide" clip-path="url(#presentation_clip_path)">
    <g class="Page">
     <g class="com.sun.star.drawing.CustomShape">
      <g id="id3">
       <path fill="rgb(255,0,0)" stroke="none" d="M 5622,19319 C 6686,19319 7499,19680 7499,20154 7499,20628 6686,20990 5622,20990 4558,20990 3746,20628 3746,20154 3746,19680 4558,19319 5622,19319 Z M 3746,19319 L 3746,19319 Z M 7500,20991 L 7500,20991 Z"/>
       <path fill="none" stroke="rgb(0,0,0)" stroke-width="49" stroke-linejoin="round" d="M 5622,19319 C 6686,19319 7499,19680 7499,20154 7499,20628 6686,20990 5622,20990 4558,20990 3746,20628 3746,20154 3746,19680 4558,19319 5622,19319 Z"/>
      </g>
     </g>
     <g class="Group">
      <g class="Group">
       <g class="com.sun.star.drawing.CustomShape">
        <g id="id4">
         <path fill="rgb(255,0,0)" stroke="none" d="M 3646,19819 C 3873,19819 4046,19988 4046,20209 4046,20430 3873,20600 3646,20600 3419,20600 3246,20430 3246,20209 3246,19988 3419,19819 3646,19819 Z M 3246,19819 L 3246,19819 Z M 4047,20602 L 4047,20602 Z"/>
         <path fill="none" stroke="rgb(0,0,0)" stroke-width="49" stroke-linejoin="round" d="M 3646,19819 C 3873,19819 4046,19988 4046,20209 4046,20430 3873,20600 3646,20600 3419,20600 3246,20430 3246,20209 3246,19988 3419,19819 3646,19819 Z"/>
        </g>
       </g>
       <g class="Group">
        <g class="com.sun.star.drawing.CustomShape">
         <g id="id5">
          <path fill="rgb(255,0,0)" stroke="none" d="M 3462,20019 C 3503,20019 3534,20050 3534,20090 3534,20130 3503,20162 3462,20162 3421,20162 3390,20130 3390,20090 3390,20050 3421,20019 3462,20019 Z M 3390,20019 L 3390,20019 Z M 3535,20163 L 3535,20163 Z"/>
          <path fill="none" stroke="rgb(0,0,0)" stroke-width="49" stroke-linejoin="round" d="M 3462,20019 C 3503,20019 3534,20050 3534,20090 3534,20130 3503,20162 3462,20162 3421,20162 3390,20130 3390,20090 3390,20050 3421,20019 3462,20019 Z"/>
         </g>
        </g>
        <g class="com.sun.star.drawing.CustomShape">
         <g id="id6">
          <path fill="rgb(255,0,0)" stroke="none" d="M 3788,20007 C 3828,20007 3860,20038 3860,20079 3860,20120 3828,20151 3788,20151 3748,20151 3717,20120 3717,20079 3717,20038 3748,20007 3788,20007 Z M 3717,20007 L 3717,20007 Z M 3861,20152 L 3861,20152 Z"/>
          <path fill="none" stroke="rgb(0,0,0)" stroke-width="49" stroke-linejoin="round" d="M 3788,20007 C 3828,20007 3860,20038 3860,20079 3860,20120 3828,20151 3788,20151 3748,20151 3717,20120 3717,20079 3717,20038 3748,20007 3788,20007 Z"/>
         </g>
        </g>
        <g class="com.sun.star.drawing.OpenBezierShape">
         <g id="id7">
          <path fill="none" stroke="rgb(0,0,0)" stroke-width="49" stroke-linejoin="round" d="M 3451,20330 C 3564,20463 3666,20500 3820,20310"/>
         </g>
        </g>
       </g>
      </g>
      <g class="com.sun.star.drawing.OpenBezierShape">
       <g id="id8">
        <path fill="none" stroke="rgb(0,0,0)" stroke-width="49" stroke-linejoin="round" d="M 3339,19662 C 3303,19787 3537,19892 3565,19791 3629,19554 3360,19817 3442,19891 3521,19964 3736,19944 3709,19811 3683,19690 3429,19869 3483,19671 L 3514,19571 3616,19571 3678,19612"/>
       </g>
      </g>
     </g>
    </g>
   </g>
  </g>
 </g>
</svg>