<?xml version="1.0" encoding="UTF-8"?>

<svg version="1.2" baseProfile="tiny" width="43.5mm" height="29.92mm" viewBox="11475 13124 4350 2992" preserveAspectRatio="xMidYMid" fill-rule="evenodd" stroke-width="28.222" stroke-linejoin="round" xmlns="http://www.w3.org/2000/svg" xmlns:ooo="http://xml.openoffice.org/svg/export" xmlns:xlink="http://www.w3.org/1999/xlink" xml:space="preserve">
 <defs class="ClipPathGroup">
  <clipPath id="presentation_clip_path" clipPathUnits="userSpaceOnUse">
   <rect x="11475" y="13124" width="4350" height="2992"/>
  </clipPath>
 </defs>
 <defs class="TextShapeIndex">
  <g ooo:slide="id1" ooo:id-list="id3 id4 id5 id6 id7 id8"/>
 </defs>
 <defs class="EmbeddedBulletChars">
  <g id="bullet-char-template(57356)" transform="scale(0.00048828125,-0.00048828125)">
   <path d="M 580,1141 L 1163,571 580,0 -4,571 580,1141 Z"/>
  </g>
  <g id="bullet-char-template(57354)" transform="scale(0.00048828125,-0.00048828125)">
   <path d="M 8,1128 L 1137,1128 1137,0 8,0 8,1128 Z"/>
  </g>
  <g id="bullet-char-template(10146)" transform="scale(0.00048828125,-0.00048828125)">
   <path d="M 174,0 L 602,739 174,1481 1456,739 174,0 Z M 1358,739 L 309,1346 659,739 1358,739 Z"/>
  </g>
  <g id="bullet-char-template(10132)" transform="scale(0.00048828125,-0.00048828125)">
   <path d="M 2015,739 L 1276,0 717,0 1260,543 174,543 174,936 1260,936 717,1481 1274,1481 2015,739 Z"/>
  </g>
  <g id="bullet-char-template(10007)" transform="scale(0.00048828125,-0.00048828125)">
   <path d="M 0,-2 C -7,14 -16,27 -25,37 L 356,567 C 262,823 215,952 215,954 215,979 228,992 255,992 264,992 276,990 289,987 310,991 331,999 354,1012 L 381,999 492,748 772,1049 836,1024 860,1049 C 881,1039 901,1025 922,1006 886,937 835,863 770,784 769,783 710,716 594,584 L 774,223 C 774,196 753,168 711,139 L 727,119 C 717,90 699,76 672,76 641,76 570,178 457,381 L 164,-76 C 142,-110 111,-127 72,-127 30,-127 9,-110 8,-76 1,-67 -2,-52 -2,-32 -2,-23 -1,-13 0,-2 Z"/>
  </g>
  <g id="bullet-char-template(10004)" transform="scale(0.00048828125,-0.00048828125)">
   <path d="M 285,-33 C 182,-33 111,30 74,156 52,228 41,333 41,471 41,549 55,616 82,672 116,743 169,778 240,778 293,778 328,747 346,684 L 369,508 C 377,444 397,411 428,410 L 1163,1116 C 1174,1127 1196,1133 1229,1133 1271,1133 1292,1118 1292,1087 L 1292,965 C 1292,929 1282,901 1262,881 L 442,47 C 390,-6 338,-33 285,-33 Z"/>
  </g>
  <g id="bullet-char-template(9679)" transform="scale(0.00048828125,-0.00048828125)">
   <path d="M 813,0 C 632,0 489,54 383,161 276,268 223,411 223,592 223,773 276,916 383,1023 489,1130 632,1184 813,1184 992,1184 1136,1130 1245,1023 1353,916 1407,772 1407,592 1407,412 1353,268 1245,161 1136,54 992,0 813,0 Z"/>
  </g>
  <g id="bullet-char-template(8226)" transform="scale(0.00048828125,-0.00048828125)">
   <path d="M 346,457 C 273,457 209,483 155,535 101,586 74,649 74,723 74,796 101,859 155,911 209,963 273,989 346,989 419,989 480,963 531,910 582,859 608,796 608,723 608,648 583,586 532,535 482,483 420,457 346,457 Z"/>
  </g>
  <g id="bullet-char-template(8211)" transform="scale(0.00048828125,-0.00048828125)">
   <path d="M -4,459 L 1135,459 1135,606 -4,606 -4,459 Z"/>
  </g>
 </defs>
 <defs class="TextEmbeddedBitmaps"/>
 <g class="SlideGroup">
  <g>
   <g id="id1" class="Slide" clip-path="url(#presentation_clip_path)">
    <g class="Page">
     <g class="com.sun.star.drawing.CustomShape">
      <g id="id3">
       <path fill="rgb(255,255,255)" stroke="none" d="M 13922,14419 C 14986,14419 15799,14780 15799,15254 15799,15728 14986,16090 13922,16090 12858,16090 12046,15728 12046,15254 12046,14780 12858,14419 13922,14419 Z M 12046,14419 L 12046,14419 Z M 15800,16091 L 15800,16091 Z"/>
       <path fill="none" stroke="rgb(0,0,0)" stroke-width="49" stroke-linejoin="round" d="M 13922,14419 C 14986,14419 15799,14780 15799,15254 15799,15728 14986,16090 13922,16090 12858,16090 12046,15728 12046,15254 12046,14780 12858,14419 13922,14419 Z"/>
      </g>
     </g>
     <g class="com.sun.star.drawing.CustomShape">
      <g id="id4">
       <path fill="rgb(255,255,255)" stroke="none" d="M 13928,14897 C 13781,14749 13990,14314 14412,13893 14834,13472 15270,13263 15418,13411 15565,13559 15356,13994 14934,14415 14512,14836 14076,15045 13928,14897 Z M 14189,15158 L 14189,15158 Z M 15157,13148 L 15157,13148 Z"/>
       <path fill="none" stroke="rgb(0,0,0)" stroke-width="49" stroke-linejoin="round" d="M 13928,14897 C 13781,14749 13990,14314 14412,13893 14834,13472 15270,13263 15418,13411 15565,13559 15356,13994 14934,14415 14512,14836 14076,15045 13928,14897 Z"/>
      </g>
     </g>
     <g class="Group">
      <g class="com.sun.star.drawing.CustomShape">
       <g id="id5">
        <path fill="rgb(255,255,255)" stroke="none" d="M 11619,14923 C 11559,14923 11499,14983 11499,15043 L 11499,15525 C 11499,15585 11559,15646 11619,15646 L 12101,15646 C 12161,15646 12222,15585 12222,15525 L 12222,15043 C 12222,14983 12161,14923 12101,14923 L 11619,14923 Z M 11499,14923 L 11499,14923 Z M 12222,15646 L 12222,15646 Z"/>
        <path fill="none" stroke="rgb(0,0,0)" stroke-width="49" stroke-linejoin="round" d="M 11619,14923 C 11559,14923 11499,14983 11499,15043 L 11499,15525 C 11499,15585 11559,15646 11619,15646 L 12101,15646 C 12161,15646 12222,15585 12222,15525 L 12222,15043 C 12222,14983 12161,14923 12101,14923 L 11619,14923 Z"/>
       </g>
      </g>
      <g class="Group">
       <g class="com.sun.star.drawing.CustomShape">
        <g id="id6">
         <path fill="rgb(255,255,255)" stroke="none" d="M 11676,15108 C 11717,15108 11749,15139 11749,15178 11749,15217 11717,15248 11676,15248 11635,15248 11604,15217 11604,15178 11604,15139 11635,15108 11676,15108 Z M 11604,15108 L 11604,15108 Z M 11751,15249 L 11751,15249 Z"/>
         <path fill="none" stroke="rgb(0,0,0)" stroke-width="49" stroke-linejoin="round" d="M 11676,15108 C 11717,15108 11749,15139 11749,15178 11749,15217 11717,15248 11676,15248 11635,15248 11604,15217 11604,15178 11604,15139 11635,15108 11676,15108 Z"/>
        </g>
       </g>
       <g class="com.sun.star.drawing.CustomShape">
        <g id="id7">
         <path fill="rgb(255,255,255)" stroke="none" d="M 12010,15094 C 12051,15094 12084,15124 12084,15164 12084,15204 12051,15235 12010,15235 11969,15235 11937,15204 11937,15164 11937,15124 11969,15094 12010,15094 Z M 11937,15094 L 11937,15094 Z M 12085,15236 L 12085,15236 Z"/>
         <path fill="none" stroke="rgb(0,0,0)" stroke-width="49" stroke-linejoin="round" d="M 12010,15094 C 12051,15094 12084,15124 12084,15164 12084,15204 12051,15235 12010,15235 11969,15235 11937,15204 11937,15164 11937,15124 11969,15094 12010,15094 Z"/>
        </g>
       </g>
       <g class="com.sun.star.drawing.OpenBezierShape">
        <g id="id8">
         <path fill="none" stroke="rgb(0,0,0)" stroke-width="49" stroke-linejoin="round" d="M 11666,15411 C 11781,15540 11886,15576 12043,15391"/>
        </g>
       </g>
      </g>
     </g>
    </g>
   </g>
  </g>
 </g>
</svg>