<?xml version="1.0" encoding="UTF-8"?>

<svg version="1.2" baseProfile="tiny" width="43.5mm" height="37.03mm" viewBox="11676 1722 4350 3703" preserveAspectRatio="xMidYMid" fill-rule="evenodd" stroke-width="28.222" stroke-linejoin="round" xmlns="http://www.w3.org/2000/svg" xmlns:ooo="http://xml.openoffice.org/svg/export" xmlns:xlink="http://www.w3.org/1999/xlink" xml:space="preserve">
 <defs class="ClipPathGroup">
  <clipPath id="presentation_clip_path" clipPathUnits="userSpaceOnUse">
   <rect x="11676" y="1722" width="4350" height="3703"/>
  </clipPath>
 </defs>
 <defs class="TextShapeIndex">
  <g ooo:slide="id1" ooo:id-list="id3 id4 id5 id6 id7 id8 id9 id10"/>
 </defs>
 <defs class="EmbeddedBulletChars">
  <g id="bullet-char-template(57356)" transform="scale(0.00048828125,-0.00048828125)">
   <path d="M 580,1141 L 1163,571 580,0 -4,571 580,1141 Z"/>
  </g>
  <g id="bullet-char-template(57354)" transform="scale(0.00048828125,-0.00048828125)">
   <path d="M 8,1128 L 1137,1128 1137,0 8,0 8,1128 Z"/>
  </g>
  <g id="bullet-char-template(10146)" transform="scale(0.00048828125,-0.00048828125)">
   <path d="M 174,0 L 602,739 174,1481 1456,739 174,0 Z M 1358,739 L 309,1346 659,739 1358,739 Z"/>
  </g>
  <g id="bullet-char-template(10132)" transform="scale(0.00048828125,-0.00048828125)">
   <path d="M 2015,739 L 1276,0 717,0 1260,543 174,543 174,936 1260,936 717,1481 1274,1481 2015,739 Z"/>
  </g>
  <g id="bullet-char-template(10007)" transform="scale(0.00048828125,-0.00048828125)">
   <path d="M 0,-2 C -7,14 -16,27 -25,37 L 356,567 C 262,823 215,952 215,954 215,979 228,992 255,992 264,992 276,990 289,987 310,991 331,999 354,1012 L 381,999 492,748 772,1049 836,1024 860,1049 C 881,1039 901,1025 922,1006 886,937 835,863 770,784 769,783 710,716 594,584 L 774,223 C 774,196 753,168 711,139 L 727,119 C 717,90 699,76 672,76 641,76 570,178 457,381 L 164,-76 C 142,-110 111,-127 72,-127 30,-127 9,-110 8,-76 1,-67 -2,-52 -2,-32 -2,-23 -1,-13 0,-2 Z"/>
  </g>
  <g id="bullet-char-template(10004)" transform="scale(0.00048828125,-0.00048828125)">
   <path d="M 285,-33 C 182,-33 111,30 74,156 52,228 41,333 41,471 41,549 55,616 82,672 116,743 169,778 240,778 293,778 328,747 346,684 L 369,508 C 377,444 397,411 428,410 L 1163,1116 C 1174,1127 1196,1133 1229,1133 1271,1133 1292,1118 1292,1087 L 1292,965 C 1292,929 1282,901 1262,881 L 442,47 C 390,-6 338,-33 285,-33 Z"/>
  </g>
  <g id="bullet-char-template(9679)" transform="scale(0.00048828125,-0.00048828125)">
   <path d="M 813,0 C 632,0 489,54 383,161 276,268 223,411 223,592 223,773 276,916 383,1023 489,1130 632,1184 813,1184 992,1184 1136,1130 1245,1023 1353,916 1407,772 1407,592 1407,412 1353,268 1245,161 1136,54 992,0 813,0 Z"/>
  </g>
  <g id="bullet-char-template(8226)" transform="scale(0.00048828125,-0.00048828125)">
   <path d="M 346,457 C 273,457 209,483 155,535 101,586 74,649 74,723 74,796 101,859 155,911 209,963 273,989 346,989 419,989 480,963 531,910 582,859 608,796 608,723 608,648 583,586 532,535 482,483 420,457 346,457 Z"/>
  </g>
  <g id="bullet-char-template(8211)" transform="scale(0.00048828125,-0.00048828125)">
   <path d="M -4,459 L 1135,459 1135,606 -4,606 -4,459 Z"/>
  </g>
 </defs>
 <defs class="TextEmbeddedBitmaps"/>
 <g class="SlideGroup">
  <g>
   <g id="id1" class="Slide" clip-path="url(#presentation_clip_path)">
    <g class="Page">
     <g class="com.sun.star.drawing.CustomShape">
      <g id="id3">
       <path fill="rgb(255,0,0)" stroke="none" d="M 14123,3018 C 15187,3018 16000,3379 16000,3853 16000,4327 15187,4689 14123,4689 13059,4689 12247,4327 12247,3853 12247,3379 13059,3018 14123,3018 Z M 12247,3018 L 12247,3018 Z M 16001,4690 L 16001,4690 Z"/>
       <path fill="none" stroke="rgb(0,0,0)" stroke-width="49" stroke-linejoin="round" d="M 14123,3018 C 15187,3018 16000,3379 16000,3853 16000,4327 15187,4689 14123,4689 13059,4689 12247,4327 12247,3853 12247,3379 13059,3018 14123,3018 Z"/>
      </g>
     </g>
     <g class="com.sun.star.drawing.CustomShape">
      <g id="id4">
       <path fill="rgb(255,0,0)" stroke="none" d="M 12979,4249 C 12939,4249 12900,4288 12900,4328 L 12900,5320 C 12900,5359 12939,5399 12979,5399 L 13299,5399 C 13338,5399 13378,5359 13378,5320 L 13378,4328 C 13378,4288 13338,4249 13299,4249 L 12979,4249 Z M 12900,4249 L 12900,4249 Z M 13379,5400 L 13379,5400 Z"/>
       <path fill="none" stroke="rgb(0,0,0)" stroke-width="49" stroke-linejoin="round" d="M 12979,4249 C 12939,4249 12900,4288 12900,4328 L 12900,5320 C 12900,5359 12939,5399 12979,5399 L 13299,5399 C 13338,5399 13378,5359 13378,5320 L 13378,4328 C 13378,4288 13338,4249 13299,4249 L 12979,4249 Z"/>
      </g>
     </g>
     <g class="com.sun.star.drawing.CustomShape">
      <g id="id5">
       <path fill="rgb(255,0,0)" stroke="none" d="M 14946,4245 C 14906,4245 14867,4284 14867,4324 L 14867,5317 C 14867,5357 14906,5397 14946,5397 L 15266,5397 C 15305,5397 15345,5357 15345,5317 L 15345,4324 C 15345,4284 15305,4245 15266,4245 L 14946,4245 Z M 14867,4245 L 14867,4245 Z M 15346,5397 L 15346,5397 Z"/>
       <path fill="none" stroke="rgb(0,0,0)" stroke-width="49" stroke-linejoin="round" d="M 14946,4245 C 14906,4245 14867,4284 14867,4324 L 14867,5317 C 14867,5357 14906,5397 14946,5397 L 15266,5397 C 15305,5397 15345,5357 15345,5317 L 15345,4324 C 15345,4284 15305,4245 15266,4245 L 14946,4245 Z"/>
      </g>
     </g>
     <g class="com.sun.star.drawing.CustomShape">
      <g id="id6">
       <path fill="rgb(255,0,0)" stroke="none" d="M 14129,3495 C 13982,3347 14191,2912 14613,2491 15035,2070 15471,1861 15619,2009 15766,2157 15557,2592 15135,3013 14713,3434 14277,3643 14129,3495 Z M 14390,3756 L 14390,3756 Z M 15358,1746 L 15358,1746 Z"/>
       <path fill="none" stroke="rgb(0,0,0)" stroke-width="49" stroke-linejoin="round" d="M 14129,3495 C 13982,3347 14191,2912 14613,2491 15035,2070 15471,1861 15619,2009 15766,2157 15557,2592 15135,3013 14713,3434 14277,3643 14129,3495 Z"/>
      </g>
     </g>
     <g class="Group">
      <g class="com.sun.star.drawing.CustomShape">
       <g id="id7">
        <path fill="rgb(255,0,0)" stroke="none" d="M 11820,3522 C 11760,3522 11700,3582 11700,3642 L 11700,4124 C 11700,4184 11760,4245 11820,4245 L 12302,4245 C 12362,4245 12423,4184 12423,4124 L 12423,3642 C 12423,3582 12362,3522 12302,3522 L 11820,3522 Z M 11700,3522 L 11700,3522 Z M 12423,4245 L 12423,4245 Z"/>
        <path fill="none" stroke="rgb(0,0,0)" stroke-width="49" stroke-linejoin="round" d="M 11820,3522 C 11760,3522 11700,3582 11700,3642 L 11700,4124 C 11700,4184 11760,4245 11820,4245 L 12302,4245 C 12362,4245 12423,4184 12423,4124 L 12423,3642 C 12423,3582 12362,3522 12302,3522 L 11820,3522 Z"/>
       </g>
      </g>
      <g class="Group">
       <g class="com.sun.star.drawing.CustomShape">
        <g id="id8">
         <path fill="rgb(255,0,0)" stroke="none" d="M 11877,3707 C 11918,3707 11950,3738 11950,3777 11950,3816 11918,3847 11877,3847 11836,3847 11805,3816 11805,3777 11805,3738 11836,3707 11877,3707 Z M 11805,3707 L 11805,3707 Z M 11952,3848 L 11952,3848 Z"/>
         <path fill="none" stroke="rgb(0,0,0)" stroke-width="49" stroke-linejoin="round" d="M 11877,3707 C 11918,3707 11950,3738 11950,3777 11950,3816 11918,3847 11877,3847 11836,3847 11805,3816 11805,3777 11805,3738 11836,3707 11877,3707 Z"/>
        </g>
       </g>
       <g class="com.sun.star.drawing.CustomShape">
        <g id="id9">
         <path fill="rgb(255,0,0)" stroke="none" d="M 12211,3693 C 12252,3693 12285,3723 12285,3763 12285,3803 12252,3834 12211,3834 12170,3834 12138,3803 12138,3763 12138,3723 12170,3693 12211,3693 Z M 12138,3693 L 12138,3693 Z M 12286,3835 L 12286,3835 Z"/>
         <path fill="none" stroke="rgb(0,0,0)" stroke-width="49" stroke-linejoin="round" d="M 12211,3693 C 12252,3693 12285,3723 12285,3763 12285,3803 12252,3834 12211,3834 12170,3834 12138,3803 12138,3763 12138,3723 12170,3693 12211,3693 Z"/>
        </g>
       </g>
       <g class="com.sun.star.drawing.OpenBezierShape">
        <g id="id10">
         <path fill="none" stroke="rgb(0,0,0)" stroke-width="49" stroke-linejoin="round" d="M 11867,4009 C 11982,4139 12087,4175 12244,3990"/>
        </g>
       </g>
      </g>
     </g>
    </g>
   </g>
  </g>
 </g>
</svg>