<?xml version="1.0" encoding="UTF-8"?>

<svg version="1.2" baseProfile="tiny" width="48.48mm" height="25.5mm" viewBox="11277 7327 4848 2550" preserveAspectRatio="xMidYMid" fill-rule="evenodd" stroke-width="28.222" stroke-linejoin="round" xmlns="http://www.w3.org/2000/svg" xmlns:ooo="http://xml.openoffice.org/svg/export" xmlns:xlink="http://www.w3.org/1999/xlink" xml:space="preserve">
 <defs class="ClipPathGroup">
  <clipPath id="presentation_clip_path" clipPathUnits="userSpaceOnUse">
   <rect x="11277" y="7327" width="4848" height="2550"/>
  </clipPath>
 </defs>
 <defs class="TextShapeIndex">
  <g ooo:slide="id1" ooo:id-list="id3 id4 id5 id6 id7 id8 id9"/>
 </defs>
 <defs class="EmbeddedBulletChars">
  <g id="bullet-char-template(57356)" transform="scale(0.00048828125,-0.00048828125)">
   <path d="M 580,1141 L 1163,571 580,0 -4,571 580,1141 Z"/>
  </g>
  <g id="bullet-char-template(57354)" transform="scale(0.00048828125,-0.00048828125)">
   <path d="M 8,1128 L 1137,1128 1137,0 8,0 8,1128 Z"/>
  </g>
  <g id="bullet-char-template(10146)" transform="scale(0.00048828125,-0.00048828125)">
   <path d="M 174,0 L 602,739 174,1481 1456,739 174,0 Z M 1358,739 L 309,1346 659,739 1358,739 Z"/>
  </g>
  <g id="bullet-char-template(10132)" transform="scale(0.00048828125,-0.00048828125)">
   <path d="M 2015,739 L 1276,0 717,0 1260,543 174,543 174,936 1260,936 717,1481 1274,1481 2015,739 Z"/>
  </g>
  <g id="bullet-char-template(10007)" transform="scale(0.00048828125,-0.00048828125)">
   <path d="M 0,-2 C -7,14 -16,27 -25,37 L 356,567 C 262,823 215,952 215,954 215,979 228,992 255,992 264,992 276,990 289,987 310,991 331,999 354,1012 L 381,999 492,748 772,1049 836,1024 860,1049 C 881,1039 901,1025 922,1006 886,937 835,863 770,784 769,783 710,716 594,584 L 774,223 C 774,196 753,168 711,139 L 727,119 C 717,90 699,76 672,76 641,76 570,178 457,381 L 164,-76 C 142,-110 111,-127 72,-127 30,-127 9,-110 8,-76 1,-67 -2,-52 -2,-32 -2,-23 -1,-13 0,-2 Z"/>
  </g>
  <g id="bullet-char-template(10004)" transform="scale(0.00048828125,-0.00048828125)">
   <path d="M 285,-33 C 182,-33 111,30 74,156 52,228 41,333 41,471 41,549 55,616 82,672 116,743 169,778 240,778 293,778 328,747 346,684 L 369,508 C 377,444 397,411 428,410 L 1163,1116 C 1174,1127 1196,1133 1229,1133 1271,1133 1292,1118 1292,1087 L 1292,965 C 1292,929 1282,901 1262,881 L 442,47 C 390,-6 338,-33 285,-33 Z"/>
  </g>
  <g id="bullet-char-template(9679)" transform="scale(0.00048828125,-0.00048828125)">
   <path d="M 813,0 C 632,0 489,54 383,161 276,268 223,411 223,592 223,773 276,916 383,1023 489,1130 632,1184 813,1184 992,1184 1136,1130 1245,1023 1353,916 1407,772 1407,592 1407,412 1353,268 1245,161 1136,54 992,0 813,0 Z"/>
  </g>
  <g id="bullet-char-template(8226)" transform="scale(0.00048828125,-0.00048828125)">
   <path d="M 346,457 C 273,457 209,483 155,535 101,586 74,649 74,723 74,796 101,859 155,911 209,963 273,989 346,989 419,989 480,963 531,910 582,859 608,796 608,723 608,648 583,586 532,535 482,483 420,457 346,457 Z"/>
  </g>
  <g id="bullet-char-template(8211)" transform="scale(0.00048828125,-0.00048828125)">
   <path d="M -4,459 L 1135,459 1135,606 -4,606 -4,459 Z"/>
  </g>
 </defs>
 <defs class="TextEmbeddedBitmaps"/>
 <g class="SlideGroup">
  <g>
   <g id="id1" class="Slide" clip-path="url(#presentation_clip_path)">
    <g class="Page">
     <g class="com.sun.star.drawing.CustomShape">
      <g id="id3">
       <path fill="rgb(255,255,255)" stroke="none" d="M 14222,7470 C 15286,7470 16099,7831 16099,8305 16099,8779 15286,9141 14222,9141 13158,9141 12346,8779 12346,8305 12346,7831 13158,7470 14222,7470 Z M 12346,7470 L 12346,7470 Z M 16100,9142 L 16100,9142 Z"/>
       <path fill="none" stroke="rgb(0,0,0)" stroke-width="49" stroke-linejoin="round" d="M 14222,7470 C 15286,7470 16099,7831 16099,8305 16099,8779 15286,9141 14222,9141 13158,9141 12346,8779 12346,8305 12346,7831 13158,7470 14222,7470 Z"/>
      </g>
     </g>
     <g class="com.sun.star.drawing.CustomShape">
      <g id="id4">
       <path fill="rgb(255,255,255)" stroke="none" d="M 13078,8701 C 13038,8701 12999,8740 12999,8780 L 12999,9772 C 12999,9811 13038,9851 13078,9851 L 13398,9851 C 13437,9851 13477,9811 13477,9772 L 13477,8780 C 13477,8740 13437,8701 13398,8701 L 13078,8701 Z M 12999,8701 L 12999,8701 Z M 13478,9852 L 13478,9852 Z"/>
       <path fill="none" stroke="rgb(0,0,0)" stroke-width="49" stroke-linejoin="round" d="M 13078,8701 C 13038,8701 12999,8740 12999,8780 L 12999,9772 C 12999,9811 13038,9851 13078,9851 L 13398,9851 C 13437,9851 13477,9811 13477,9772 L 13477,8780 C 13477,8740 13437,8701 13398,8701 L 13078,8701 Z"/>
      </g>
     </g>
     <g class="com.sun.star.drawing.CustomShape">
      <g id="id5">
       <path fill="rgb(255,255,255)" stroke="none" d="M 15045,8697 C 15005,8697 14966,8736 14966,8776 L 14966,9769 C 14966,9809 15005,9849 15045,9849 L 15365,9849 C 15404,9849 15444,9809 15444,9769 L 15444,8776 C 15444,8736 15404,8697 15365,8697 L 15045,8697 Z M 14966,8697 L 14966,8697 Z M 15445,9849 L 15445,9849 Z"/>
       <path fill="none" stroke="rgb(0,0,0)" stroke-width="49" stroke-linejoin="round" d="M 15045,8697 C 15005,8697 14966,8736 14966,8776 L 14966,9769 C 14966,9809 15005,9849 15045,9849 L 15365,9849 C 15404,9849 15444,9809 15444,9769 L 15444,8776 C 15444,8736 15404,8697 15365,8697 L 15045,8697 Z"/>
      </g>
     </g>
     <g class="Group">
      <g class="com.sun.star.drawing.CustomShape">
       <g id="id6">
        <path fill="rgb(255,255,255)" stroke="none" d="M 11550,7351 C 11425,7351 11301,7475 11301,7600 L 11301,8708 C 11301,8832 11425,8957 11550,8957 L 12549,8957 C 12673,8957 12798,8832 12798,8708 L 12798,7600 C 12798,7475 12673,7351 12549,7351 L 11550,7351 Z M 11301,7351 L 11301,7351 Z M 12799,8958 L 12799,8958 Z"/>
        <path fill="none" stroke="rgb(0,0,0)" stroke-width="49" stroke-linejoin="round" d="M 11550,7351 C 11425,7351 11301,7475 11301,7600 L 11301,8708 C 11301,8832 11425,8957 11550,8957 L 12549,8957 C 12673,8957 12798,8832 12798,8708 L 12798,7600 C 12798,7475 12673,7351 12549,7351 L 11550,7351 Z"/>
       </g>
      </g>
      <g class="Group">
       <g class="com.sun.star.drawing.CustomShape">
        <g id="id7">
         <path fill="rgb(255,255,255)" stroke="none" d="M 11670,7762 C 11756,7762 11822,7830 11822,7918 11822,8006 11756,8074 11670,8074 11584,8074 11519,8006 11519,7918 11519,7830 11584,7762 11670,7762 Z M 11519,7762 L 11519,7762 Z M 11824,8075 L 11824,8075 Z"/>
         <path fill="none" stroke="rgb(0,0,0)" stroke-width="49" stroke-linejoin="round" d="M 11670,7762 C 11756,7762 11822,7830 11822,7918 11822,8006 11756,8074 11670,8074 11584,8074 11519,8006 11519,7918 11519,7830 11584,7762 11670,7762 Z"/>
        </g>
       </g>
       <g class="com.sun.star.drawing.CustomShape">
        <g id="id8">
         <path fill="rgb(255,255,255)" stroke="none" d="M 12364,7735 C 12450,7735 12516,7803 12516,7891 12516,7979 12450,8047 12364,8047 12278,8047 12213,7979 12213,7891 12213,7803 12278,7735 12364,7735 Z M 12213,7735 L 12213,7735 Z M 12518,8048 L 12518,8048 Z"/>
         <path fill="none" stroke="rgb(0,0,0)" stroke-width="49" stroke-linejoin="round" d="M 12364,7735 C 12450,7735 12516,7803 12516,7891 12516,7979 12450,8047 12364,8047 12278,8047 12213,7979 12213,7891 12213,7803 12278,7735 12364,7735 Z"/>
        </g>
       </g>
       <g class="com.sun.star.drawing.OpenBezierShape">
        <g id="id9">
         <path fill="none" stroke="rgb(0,0,0)" stroke-width="49" stroke-linejoin="round" d="M 11649,8435 C 11887,8723 12105,8804 12430,8392"/>
        </g>
       </g>
      </g>
     </g>
    </g>
   </g>
  </g>
 </g>
</svg>