<?xml version="1.0" encoding="UTF-8"?>

<svg version="1.2" baseProfile="tiny" width="43.03mm" height="24.31mm" viewBox="2776 9046 4303 2431" preserveAspectRatio="xMidYMid" fill-rule="evenodd" stroke-width="28.222" stroke-linejoin="round" xmlns="http://www.w3.org/2000/svg" xmlns:ooo="http://xml.openoffice.org/svg/export" xmlns:xlink="http://www.w3.org/1999/xlink" xml:space="preserve">
 <defs class="ClipPathGroup">
  <clipPath id="presentation_clip_path" clipPathUnits="userSpaceOnUse">
   <rect x="2776" y="9046" width="4303" height="2431"/>
  </clipPath>
 </defs>
 <defs class="TextShapeIndex">
  <g ooo:slide="id1" ooo:id-list="id3 id4 id5 id6 id7 id8 id9 id10"/>
 </defs>
 <defs class="EmbeddedBulletChars">
  <g id="bullet-char-template(57356)" transform="scale(0.00048828125,-0.00048828125)">
   <path d="M 580,1141 L 1163,571 580,0 -4,571 580,1141 Z"/>
  </g>
  <g id="bullet-char-template(57354)" transform="scale(0.00048828125,-0.00048828125)">
   <path d="M 8,1128 L 1137,1128 1137,0 8,0 8,1128 Z"/>
  </g>
  <g id="bullet-char-template(10146)" transform="scale(0.00048828125,-0.00048828125)">
   <path d="M 174,0 L 602,739 174,1481 1456,739 174,0 Z M 1358,739 L 309,1346 659,739 1358,739 Z"/>
  </g>
  <g id="bullet-char-template(10132)" transform="scale(0.00048828125,-0.00048828125)">
   <path d="M 2015,739 L 1276,0 717,0 1260,543 174,543 174,936 1260,936 717,1481 1274,1481 2015,739 Z"/>
  </g>
  <g id="bullet-char-template(10007)" transform="scale(0.00048828125,-0.00048828125)">
   <path d="M 0,-2 C -7,14 -16,27 -25,37 L 356,567 C 262,823 215,952 215,954 215,979 228,992 255,992 264,992 276,990 289,987 310,991 331,999 354,1012 L 381,999 492,748 772,1049 836,1024 860,1049 C 881,1039 901,1025 922,1006 886,937 835,863 770,784 769,783 710,716 594,584 L 774,223 C 774,196 753,168 711,139 L 727,119 C 717,90 699,76 672,76 641,76 570,178 457,381 L 164,-76 C 142,-110 111,-127 72,-127 30,-127 9,-110 8,-76 1,-67 -2,-52 -2,-32 -2,-23 -1,-13 0,-2 Z"/>
  </g>
  <g id="bullet-char-template(10004)" transform="scale(0.00048828125,-0.00048828125)">
   <path d="M 285,-33 C 182,-33 111,30 74,156 52,228 41,333 41,471 41,549 55,616 82,672 116,743 169,778 240,778 293,778 328,747 346,684 L 369,508 C 377,444 397,411 428,410 L 1163,1116 C 1174,1127 1196,1133 1229,1133 1271,1133 1292,1118 1292,1087 L 1292,965 C 1292,929 1282,901 1262,881 L 442,47 C 390,-6 338,-33 285,-33 Z"/>
  </g>
  <g id="bullet-char-template(9679)" transform="scale(0.00048828125,-0.00048828125)">
   <path d="M 813,0 C 632,0 489,54 383,161 276,268 223,411 223,592 223,773 276,916 383,1023 489,1130 632,1184 813,1184 992,1184 1136,1130 1245,1023 1353,916 1407,772 1407,592 1407,412 1353,268 1245,161 1136,54 992,0 813,0 Z"/>
  </g>
  <g id="bullet-char-template(8226)" transform="scale(0.00048828125,-0.00048828125)">
   <path d="M 346,457 C 273,457 209,483 155,535 101,586 74,649 74,723 74,796 101,859 155,911 209,963 273,989 346,989 419,989 480,963 531,910 582,859 608,796 608,723 608,648 583,586 532,535 482,483 420,457 346,457 Z"/>
  </g>
  <g id="bullet-char-template(8211)" transform="scale(0.00048828125,-0.00048828125)">
   <path d="M -4,459 L 1135,459 1135,606 -4,606 -4,459 Z"/>
  </g>
 </defs>
 <defs class="TextEmbeddedBitmaps"/>
 <g class="SlideGroup">
  <g>
   <g id="id1" class="Slide" clip-path="url(#presentation_clip_path)">
    <g class="Page">
     <g class="com.sun.star.drawing.CustomShape">
      <g id="id3">
       <path fill="rgb(255,255,255)" stroke="none" d="M 5176,9070 C 6240,9070 7053,9431 7053,9905 7053,10379 6240,10741 5176,10741 4112,10741 3300,10379 3300,9905 3300,9431 4112,9070 5176,9070 Z M 3300,9070 L 3300,9070 Z M 7054,10742 L 7054,10742 Z"/>
       <path fill="none" stroke="rgb(0,0,0)" stroke-width="49" stroke-linejoin="round" d="M 5176,9070 C 6240,9070 7053,9431 7053,9905 7053,10379 6240,10741 5176,10741 4112,10741 3300,10379 3300,9905 3300,9431 4112,9070 5176,9070 Z"/>
      </g>
     </g>
     <g class="com.sun.star.drawing.CustomShape">
      <g id="id4">
       <path fill="rgb(255,255,255)" stroke="none" d="M 4032,10301 C 3992,10301 3953,10340 3953,10380 L 3953,11372 C 3953,11411 3992,11451 4032,11451 L 4352,11451 C 4391,11451 4431,11411 4431,11372 L 4431,10380 C 4431,10340 4391,10301 4352,10301 L 4032,10301 Z M 3953,10301 L 3953,10301 Z M 4432,11452 L 4432,11452 Z"/>
       <path fill="none" stroke="rgb(0,0,0)" stroke-width="49" stroke-linejoin="round" d="M 4032,10301 C 3992,10301 3953,10340 3953,10380 L 3953,11372 C 3953,11411 3992,11451 4032,11451 L 4352,11451 C 4391,11451 4431,11411 4431,11372 L 4431,10380 C 4431,10340 4391,10301 4352,10301 L 4032,10301 Z"/>
      </g>
     </g>
     <g class="com.sun.star.drawing.CustomShape">
      <g id="id5">
       <path fill="rgb(255,255,255)" stroke="none" d="M 5999,10297 C 5959,10297 5920,10336 5920,10376 L 5920,11369 C 5920,11409 5959,11449 5999,11449 L 6319,11449 C 6358,11449 6398,11409 6398,11369 L 6398,10376 C 6398,10336 6358,10297 6319,10297 L 5999,10297 Z M 5920,10297 L 5920,10297 Z M 6399,11449 L 6399,11449 Z"/>
       <path fill="none" stroke="rgb(0,0,0)" stroke-width="49" stroke-linejoin="round" d="M 5999,10297 C 5959,10297 5920,10336 5920,10376 L 5920,11369 C 5920,11409 5959,11449 5999,11449 L 6319,11449 C 6358,11449 6398,11409 6398,11369 L 6398,10376 C 6398,10336 6358,10297 6319,10297 L 5999,10297 Z"/>
      </g>
     </g>
     <g class="Group">
      <g class="Group">
       <g class="com.sun.star.drawing.CustomShape">
        <g id="id6">
         <path fill="rgb(255,255,255)" stroke="none" d="M 3200,9570 C 3427,9570 3600,9739 3600,9960 3600,10181 3427,10351 3200,10351 2973,10351 2800,10181 2800,9960 2800,9739 2973,9570 3200,9570 Z M 2800,9570 L 2800,9570 Z M 3601,10353 L 3601,10353 Z"/>
         <path fill="none" stroke="rgb(0,0,0)" stroke-width="49" stroke-linejoin="round" d="M 3200,9570 C 3427,9570 3600,9739 3600,9960 3600,10181 3427,10351 3200,10351 2973,10351 2800,10181 2800,9960 2800,9739 2973,9570 3200,9570 Z"/>
        </g>
       </g>
       <g class="Group">
        <g class="com.sun.star.drawing.CustomShape">
         <g id="id7">
          <path fill="rgb(255,255,255)" stroke="none" d="M 3016,9770 C 3057,9770 3088,9801 3088,9841 3088,9881 3057,9913 3016,9913 2975,9913 2944,9881 2944,9841 2944,9801 2975,9770 3016,9770 Z M 2944,9770 L 2944,9770 Z M 3089,9914 L 3089,9914 Z"/>
          <path fill="none" stroke="rgb(0,0,0)" stroke-width="49" stroke-linejoin="round" d="M 3016,9770 C 3057,9770 3088,9801 3088,9841 3088,9881 3057,9913 3016,9913 2975,9913 2944,9881 2944,9841 2944,9801 2975,9770 3016,9770 Z"/>
         </g>
        </g>
        <g class="com.sun.star.drawing.CustomShape">
         <g id="id8">
          <path fill="rgb(255,255,255)" stroke="none" d="M 3342,9758 C 3382,9758 3414,9789 3414,9830 3414,9871 3382,9902 3342,9902 3302,9902 3271,9871 3271,9830 3271,9789 3302,9758 3342,9758 Z M 3271,9758 L 3271,9758 Z M 3415,9903 L 3415,9903 Z"/>
          <path fill="none" stroke="rgb(0,0,0)" stroke-width="49" stroke-linejoin="round" d="M 3342,9758 C 3382,9758 3414,9789 3414,9830 3414,9871 3382,9902 3342,9902 3302,9902 3271,9871 3271,9830 3271,9789 3302,9758 3342,9758 Z"/>
         </g>
        </g>
        <g class="com.sun.star.drawing.OpenBezierShape">
         <g id="id9">
          <path fill="none" stroke="rgb(0,0,0)" stroke-width="49" stroke-linejoin="round" d="M 3005,10081 C 3118,10214 3220,10251 3374,10061"/>
         </g>
        </g>
       </g>
      </g>
      <g class="com.sun.star.drawing.OpenBezierShape">
       <g id="id10">
        <path fill="none" stroke="rgb(0,0,0)" stroke-width="49" stroke-linejoin="round" d="M 2893,9413 C 2857,9538 3091,9643 3119,9542 3183,9305 2914,9568 2996,9642 3075,9715 3290,9695 3263,9562 3237,9441 2983,9620 3037,9422 L 3068,9322 3170,9322 3232,9363"/>
       </g>
      </g>
     </g>
    </g>
   </g>
  </g>
 </g>
</svg>