<?xml version="1.0" encoding="UTF-8"?>

<svg version="1.2" baseProfile="tiny" width="43.03mm" height="37.03mm" viewBox="2776 1822 4303 3703" preserveAspectRatio="xMidYMid" fill-rule="evenodd" stroke-width="28.222" stroke-linejoin="round" xmlns="http://www.w3.org/2000/svg" xmlns:ooo="http://xml.openoffice.org/svg/export" xmlns:xlink="http://www.w3.org/1999/xlink" xml:space="preserve">
 <defs class="ClipPathGroup">
  <clipPath id="presentation_clip_path" clipPathUnits="userSpaceOnUse">
   <rect x="2776" y="1822" width="4303" height="3703"/>
  </clipPath>
 </defs>
 <defs class="TextShapeIndex">
  <g ooo:slide="id1" ooo:id-list="id3 id4 id5 id6 id7 id8 id9 id10 id11"/>
 </defs>
 <defs class="EmbeddedBulletChars">
  <g id="bullet-char-template(57356)" transform="scale(0.00048828125,-0.00048828125)">
   <path d="M 580,1141 L 1163,571 580,0 -4,571 580,1141 Z"/>
  </g>
  <g id="bullet-char-template(57354)" transform="scale(0.00048828125,-0.00048828125)">
   <path d="M 8,1128 L 1137,1128 1137,0 8,0 8,1128 Z"/>
  </g>
  <g id="bullet-char-template(10146)" transform="scale(0.00048828125,-0.00048828125)">
   <path d="M 174,0 L 602,739 174,1481 1456,739 174,0 Z M 1358,739 L 309,1346 659,739 1358,739 Z"/>
  </g>
  <g id="bullet-char-template(10132)" transform="scale(0.00048828125,-0.00048828125)">
   <path d="M 2015,739 L 1276,0 717,0 1260,543 174,543 174,936 1260,936 717,1481 1274,1481 2015,739 Z"/>
  </g>
  <g id="bullet-char-template(10007)" transform="scale(0.00048828125,-0.00048828125)">
   <path d="M 0,-2 C -7,14 -16,27 -25,37 L 356,567 C 262,823 215,952 215,954 215,979 228,992 255,992 264,992 276,990 289,987 310,991 331,999 354,1012 L 381,999 492,748 772,1049 836,1024 860,1049 C 881,1039 901,1025 922,1006 886,937 835,863 770,784 769,783 710,716 594,584 L 774,223 C 774,196 753,168 711,139 L 727,119 C 717,90 699,76 672,76 641,76 570,178 457,381 L 164,-76 C 142,-110 111,-127 72,-127 30,-127 9,-110 8,-76 1,-67 -2,-52 -2,-32 -2,-23 -1,-13 0,-2 Z"/>
  </g>
  <g id="bullet-char-template(10004)" transform="scale(0.00048828125,-0.00048828125)">
   <path d="M 285,-33 C 182,-33 111,30 74,156 52,228 41,333 41,471 41,549 55,616 82,672 116,743 169,778 240,778 293,778 328,747 346,684 L 369,508 C 377,444 397,411 428,410 L 1163,1116 C 1174,1127 1196,1133 1229,1133 1271,1133 1292,1118 1292,1087 L 1292,965 C 1292,929 1282,901 1262,881 L 442,47 C 390,-6 338,-33 285,-33 Z"/>
  </g>
  <g id="bullet-char-template(9679)" transform="scale(0.00048828125,-0.00048828125)">
   <path d="M 813,0 C 632,0 489,54 383,161 276,268 223,411 223,592 223,773 276,916 383,1023 489,1130 632,1184 813,1184 992,1184 1136,1130 1245,1023 1353,916 1407,772 1407,592 1407,412 1353,268 1245,161 1136,54 992,0 813,0 Z"/>
  </g>
  <g id="bullet-char-template(8226)" transform="scale(0.00048828125,-0.00048828125)">
   <path d="M 346,457 C 273,457 209,483 155,535 101,586 74,649 74,723 74,796 101,859 155,911 209,963 273,989 346,989 419,989 480,963 531,910 582,859 608,796 608,723 608,648 583,586 532,535 482,483 420,457 346,457 Z"/>
  </g>
  <g id="bullet-char-template(8211)" transform="scale(0.00048828125,-0.00048828125)">
   <path d="M -4,459 L 1135,459 1135,606 -4,606 -4,459 Z"/>
  </g>
 </defs>
 <defs class="TextEmbeddedBitmaps"/>
 <g class="SlideGroup">
  <g>
   <g id="id1" class="Slide" clip-path="url(#presentation_clip_path)">
    <g class="Page">
     <g class="com.sun.star.drawing.CustomShape">
      <g id="id3">
       <path fill="rgb(255,0,0)" stroke="none" d="M 5176,3118 C 6240,3118 7053,3479 7053,3953 7053,4427 6240,4789 5176,4789 4112,4789 3300,4427 3300,3953 3300,3479 4112,3118 5176,3118 Z M 3300,3118 L 3300,3118 Z M 7054,4790 L 7054,4790 Z"/>
       <path fill="none" stroke="rgb(0,0,0)" stroke-width="49" stroke-linejoin="round" d="M 5176,3118 C 6240,3118 7053,3479 7053,3953 7053,4427 6240,4789 5176,4789 4112,4789 3300,4427 3300,3953 3300,3479 4112,3118 5176,3118 Z"/>
      </g>
     </g>
     <g class="com.sun.star.drawing.CustomShape">
      <g id="id4">
       <path fill="rgb(255,0,0)" stroke="none" d="M 4032,4349 C 3992,4349 3953,4388 3953,4428 L 3953,5420 C 3953,5459 3992,5499 4032,5499 L 4352,5499 C 4391,5499 4431,5459 4431,5420 L 4431,4428 C 4431,4388 4391,4349 4352,4349 L 4032,4349 Z M 3953,4349 L 3953,4349 Z M 4432,5500 L 4432,5500 Z"/>
       <path fill="none" stroke="rgb(0,0,0)" stroke-width="49" stroke-linejoin="round" d="M 4032,4349 C 3992,4349 3953,4388 3953,4428 L 3953,5420 C 3953,5459 3992,5499 4032,5499 L 4352,5499 C 4391,5499 4431,5459 4431,5420 L 4431,4428 C 4431,4388 4391,4349 4352,4349 L 4032,4349 Z"/>
      </g>
     </g>
     <g class="com.sun.star.drawing.CustomShape">
      <g id="id5">
       <path fill="rgb(255,0,0)" stroke="none" d="M 5999,4345 C 5959,4345 5920,4384 5920,4424 L 5920,5417 C 5920,5457 5959,5497 5999,5497 L 6319,5497 C 6358,5497 6398,5457 6398,5417 L 6398,4424 C 6398,4384 6358,4345 6319,4345 L 5999,4345 Z M 5920,4345 L 5920,4345 Z M 6399,5497 L 6399,5497 Z"/>
       <path fill="none" stroke="rgb(0,0,0)" stroke-width="49" stroke-linejoin="round" d="M 5999,4345 C 5959,4345 5920,4384 5920,4424 L 5920,5417 C 5920,5457 5959,5497 5999,5497 L 6319,5497 C 6358,5497 6398,5457 6398,5417 L 6398,4424 C 6398,4384 6358,4345 6319,4345 L 5999,4345 Z"/>
      </g>
     </g>
     <g class="com.sun.star.drawing.CustomShape">
      <g id="id6">
       <path fill="rgb(255,0,0)" stroke="none" d="M 5182,3595 C 5035,3447 5244,3012 5666,2591 6088,2170 6524,1961 6672,2109 6819,2257 6610,2692 6188,3113 5766,3534 5330,3743 5182,3595 Z M 5443,3856 L 5443,3856 Z M 6411,1846 L 6411,1846 Z"/>
       <path fill="none" stroke="rgb(0,0,0)" stroke-width="49" stroke-linejoin="round" d="M 5182,3595 C 5035,3447 5244,3012 5666,2591 6088,2170 6524,1961 6672,2109 6819,2257 6610,2692 6188,3113 5766,3534 5330,3743 5182,3595 Z"/>
      </g>
     </g>
     <g class="Group">
      <g class="Group">
       <g class="com.sun.star.drawing.CustomShape">
        <g id="id7">
         <path fill="rgb(255,0,0)" stroke="none" d="M 3200,3618 C 3427,3618 3600,3787 3600,4008 3600,4229 3427,4399 3200,4399 2973,4399 2800,4229 2800,4008 2800,3787 2973,3618 3200,3618 Z M 2800,3618 L 2800,3618 Z M 3601,4401 L 3601,4401 Z"/>
         <path fill="none" stroke="rgb(0,0,0)" stroke-width="49" stroke-linejoin="round" d="M 3200,3618 C 3427,3618 3600,3787 3600,4008 3600,4229 3427,4399 3200,4399 2973,4399 2800,4229 2800,4008 2800,3787 2973,3618 3200,3618 Z"/>
        </g>
       </g>
       <g class="Group">
        <g class="com.sun.star.drawing.CustomShape">
         <g id="id8">
          <path fill="rgb(255,0,0)" stroke="none" d="M 3016,3818 C 3057,3818 3088,3849 3088,3889 3088,3929 3057,3961 3016,3961 2975,3961 2944,3929 2944,3889 2944,3849 2975,3818 3016,3818 Z M 2944,3818 L 2944,3818 Z M 3089,3962 L 3089,3962 Z"/>
          <path fill="none" stroke="rgb(0,0,0)" stroke-width="49" stroke-linejoin="round" d="M 3016,3818 C 3057,3818 3088,3849 3088,3889 3088,3929 3057,3961 3016,3961 2975,3961 2944,3929 2944,3889 2944,3849 2975,3818 3016,3818 Z"/>
         </g>
        </g>
        <g class="com.sun.star.drawing.CustomShape">
         <g id="id9">
          <path fill="rgb(255,0,0)" stroke="none" d="M 3342,3806 C 3382,3806 3414,3837 3414,3878 3414,3919 3382,3950 3342,3950 3302,3950 3271,3919 3271,3878 3271,3837 3302,3806 3342,3806 Z M 3271,3806 L 3271,3806 Z M 3415,3951 L 3415,3951 Z"/>
          <path fill="none" stroke="rgb(0,0,0)" stroke-width="49" stroke-linejoin="round" d="M 3342,3806 C 3382,3806 3414,3837 3414,3878 3414,3919 3382,3950 3342,3950 3302,3950 3271,3919 3271,3878 3271,3837 3302,3806 3342,3806 Z"/>
         </g>
        </g>
        <g class="com.sun.star.drawing.OpenBezierShape">
         <g id="id10">
          <path fill="none" stroke="rgb(0,0,0)" stroke-width="49" stroke-linejoin="round" d="M 3005,4129 C 3118,4262 3221,4299 3374,4109"/>
         </g>
        </g>
       </g>
      </g>
      <g class="com.sun.star.drawing.OpenBezierShape">
       <g id="id11">
        <path fill="none" stroke="rgb(0,0,0)" stroke-width="49" stroke-linejoin="round" d="M 2893,3460 C 2857,3586 3091,3691 3119,3590 3183,3354 2914,3616 2996,3691 3075,3763 3290,3742 3262,3611 3237,3490 2983,3668 3037,3470 L 3068,3370 3170,3370 3232,3410"/>
       </g>
      </g>
     </g>
    </g>
   </g>
  </g>
 </g>
</svg>