<?xml version="1.0" encoding="UTF-8"?>

<svg version="1.2" baseProfile="tiny" width="48.48mm" height="37.03mm" viewBox="11177 1723 4848 3703" preserveAspectRatio="xMidYMid" fill-rule="evenodd" stroke-width="28.222" stroke-linejoin="round" xmlns="http://www.w3.org/2000/svg" xmlns:ooo="http://xml.openoffice.org/svg/export" xmlns:xlink="http://www.w3.org/1999/xlink" xml:space="preserve">
 <defs class="ClipPathGroup">
  <clipPath id="presentation_clip_path" clipPathUnits="userSpaceOnUse">
   <rect x="11177" y="1723" width="4848" height="3703"/>
  </clipPath>
 </defs>
 <defs class="TextShapeIndex">
  <g ooo:slide="id1" ooo:id-list="id3 id4 id5 id6 id7 id8 id9 id10"/>
 </defs>
 <defs class="EmbeddedBulletChars">
  <g id="bullet-char-template(57356)" transform="scale(0.00048828125,-0.00048828125)">
   <path d="M 580,1141 L 1163,571 580,0 -4,571 580,1141 Z"/>
  </g>
  <g id="bullet-char-template(57354)" transform="scale(0.00048828125,-0.00048828125)">
   <path d="M 8,1128 L 1137,1128 1137,0 8,0 8,1128 Z"/>
  </g>
  <g id="bullet-char-template(10146)" transform="scale(0.00048828125,-0.00048828125)">
   <path d="M 174,0 L 602,739 174,1481 1456,739 174,0 Z M 1358,739 L 309,1346 659,739 1358,739 Z"/>
  </g>
  <g id="bullet-char-template(10132)" transform="scale(0.00048828125,-0.00048828125)">
   <path d="M 2015,739 L 1276,0 717,0 1260,543 174,543 174,936 1260,936 717,1481 1274,1481 2015,739 Z"/>
  </g>
  <g id="bullet-char-template(10007)" transform="scale(0.00048828125,-0.00048828125)">
   <path d="M 0,-2 C -7,14 -16,27 -25,37 L 356,567 C 262,823 215,952 215,954 215,979 228,992 255,992 264,992 276,990 289,987 310,991 331,999 354,1012 L 381,999 492,748 772,1049 836,1024 860,1049 C 881,1039 901,1025 922,1006 886,937 835,863 770,784 769,783 710,716 594,584 L 774,223 C 774,196 753,168 711,139 L 727,119 C 717,90 699,76 672,76 641,76 570,178 457,381 L 164,-76 C 142,-110 111,-127 72,-127 30,-127 9,-110 8,-76 1,-67 -2,-52 -2,-32 -2,-23 -1,-13 0,-2 Z"/>
  </g>
  <g id="bullet-char-template(10004)" transform="scale(0.00048828125,-0.00048828125)">
   <path d="M 285,-33 C 182,-33 111,30 74,156 52,228 41,333 41,471 41,549 55,616 82,672 116,743 169,778 240,778 293,778 328,747 346,684 L 369,508 C 377,444 397,411 428,410 L 1163,1116 C 1174,1127 1196,1133 1229,1133 1271,1133 1292,1118 1292,1087 L 1292,965 C 1292,929 1282,901 1262,881 L 442,47 C 390,-6 338,-33 285,-33 Z"/>
  </g>
  <g id="bullet-char-template(9679)" transform="scale(0.00048828125,-0.00048828125)">
   <path d="M 813,0 C 632,0 489,54 383,161 276,268 223,411 223,592 223,773 276,916 383,1023 489,1130 632,1184 813,1184 992,1184 1136,1130 1245,1023 1353,916 1407,772 1407,592 1407,412 1353,268 1245,161 1136,54 992,0 813,0 Z"/>
  </g>
  <g id="bullet-char-template(8226)" transform="scale(0.00048828125,-0.00048828125)">
   <path d="M 346,457 C 273,457 209,483 155,535 101,586 74,649 74,723 74,796 101,859 155,911 209,963 273,989 346,989 419,989 480,963 531,910 582,859 608,796 608,723 608,648 583,586 532,535 482,483 420,457 346,457 Z"/>
  </g>
  <g id="bullet-char-template(8211)" transform="scale(0.00048828125,-0.00048828125)">
   <path d="M -4,459 L 1135,459 1135,606 -4,606 -4,459 Z"/>
  </g>
 </defs>
 <defs class="TextEmbeddedBitmaps"/>
 <g class="SlideGroup">
  <g>
   <g id="id1" class="Slide" clip-path="url(#presentation_clip_path)">
    <g class="Page">
     <g class="com.sun.star.drawing.CustomShape">
      <g id="id3">
       <path fill="rgb(255,0,0)" stroke="none" d="M 14123,3019 C 15187,3019 16000,3380 16000,3854 16000,4328 15187,4690 14123,4690 13059,4690 12247,4328 12247,3854 12247,3380 13059,3019 14123,3019 Z M 12247,3019 L 12247,3019 Z M 16001,4691 L 16001,4691 Z"/>
       <path fill="none" stroke="rgb(0,0,0)" stroke-width="49" stroke-linejoin="round" d="M 14123,3019 C 15187,3019 16000,3380 16000,3854 16000,4328 15187,4690 14123,4690 13059,4690 12247,4328 12247,3854 12247,3380 13059,3019 14123,3019 Z"/>
      </g>
     </g>
     <g class="com.sun.star.drawing.CustomShape">
      <g id="id4">
       <path fill="rgb(255,0,0)" stroke="none" d="M 12979,4250 C 12939,4250 12900,4289 12900,4329 L 12900,5321 C 12900,5360 12939,5400 12979,5400 L 13299,5400 C 13338,5400 13378,5360 13378,5321 L 13378,4329 C 13378,4289 13338,4250 13299,4250 L 12979,4250 Z M 12900,4250 L 12900,4250 Z M 13379,5401 L 13379,5401 Z"/>
       <path fill="none" stroke="rgb(0,0,0)" stroke-width="49" stroke-linejoin="round" d="M 12979,4250 C 12939,4250 12900,4289 12900,4329 L 12900,5321 C 12900,5360 12939,5400 12979,5400 L 13299,5400 C 13338,5400 13378,5360 13378,5321 L 13378,4329 C 13378,4289 13338,4250 13299,4250 L 12979,4250 Z"/>
      </g>
     </g>
     <g class="com.sun.star.drawing.CustomShape">
      <g id="id5">
       <path fill="rgb(255,0,0)" stroke="none" d="M 14946,4246 C 14906,4246 14867,4285 14867,4325 L 14867,5318 C 14867,5358 14906,5398 14946,5398 L 15266,5398 C 15305,5398 15345,5358 15345,5318 L 15345,4325 C 15345,4285 15305,4246 15266,4246 L 14946,4246 Z M 14867,4246 L 14867,4246 Z M 15346,5398 L 15346,5398 Z"/>
       <path fill="none" stroke="rgb(0,0,0)" stroke-width="49" stroke-linejoin="round" d="M 14946,4246 C 14906,4246 14867,4285 14867,4325 L 14867,5318 C 14867,5358 14906,5398 14946,5398 L 15266,5398 C 15305,5398 15345,5358 15345,5318 L 15345,4325 C 15345,4285 15305,4246 15266,4246 L 14946,4246 Z"/>
      </g>
     </g>
     <g class="com.sun.star.drawing.CustomShape">
      <g id="id6">
       <path fill="rgb(255,0,0)" stroke="none" d="M 14129,3496 C 13982,3348 14191,2913 14613,2492 15035,2071 15471,1862 15619,2010 15766,2158 15557,2593 15135,3014 14713,3435 14277,3644 14129,3496 Z M 14390,3757 L 14390,3757 Z M 15358,1747 L 15358,1747 Z"/>
       <path fill="none" stroke="rgb(0,0,0)" stroke-width="49" stroke-linejoin="round" d="M 14129,3496 C 13982,3348 14191,2913 14613,2492 15035,2071 15471,1862 15619,2010 15766,2158 15557,2593 15135,3014 14713,3435 14277,3644 14129,3496 Z"/>
      </g>
     </g>
     <g class="Group">
      <g class="com.sun.star.drawing.CustomShape">
       <g id="id7">
        <path fill="rgb(255,0,0)" stroke="none" d="M 11451,2900 C 11326,2900 11202,3024 11202,3149 L 11202,4257 C 11202,4381 11326,4506 11451,4506 L 12450,4506 C 12574,4506 12699,4381 12699,4257 L 12699,3149 C 12699,3024 12574,2900 12450,2900 L 11451,2900 Z M 11202,2900 L 11202,2900 Z M 12700,4507 L 12700,4507 Z"/>
        <path fill="none" stroke="rgb(0,0,0)" stroke-width="49" stroke-linejoin="round" d="M 11451,2900 C 11326,2900 11202,3024 11202,3149 L 11202,4257 C 11202,4381 11326,4506 11451,4506 L 12450,4506 C 12574,4506 12699,4381 12699,4257 L 12699,3149 C 12699,3024 12574,2900 12450,2900 L 11451,2900 Z"/>
       </g>
      </g>
      <g class="Group">
       <g class="com.sun.star.drawing.CustomShape">
        <g id="id8">
         <path fill="rgb(255,0,0)" stroke="none" d="M 11571,3311 C 11657,3311 11723,3379 11723,3467 11723,3555 11657,3623 11571,3623 11485,3623 11420,3555 11420,3467 11420,3379 11485,3311 11571,3311 Z M 11420,3311 L 11420,3311 Z M 11725,3624 L 11725,3624 Z"/>
         <path fill="none" stroke="rgb(0,0,0)" stroke-width="49" stroke-linejoin="round" d="M 11571,3311 C 11657,3311 11723,3379 11723,3467 11723,3555 11657,3623 11571,3623 11485,3623 11420,3555 11420,3467 11420,3379 11485,3311 11571,3311 Z"/>
        </g>
       </g>
       <g class="com.sun.star.drawing.CustomShape">
        <g id="id9">
         <path fill="rgb(255,0,0)" stroke="none" d="M 12265,3284 C 12351,3284 12417,3352 12417,3440 12417,3528 12351,3596 12265,3596 12179,3596 12114,3528 12114,3440 12114,3352 12179,3284 12265,3284 Z M 12114,3284 L 12114,3284 Z M 12419,3597 L 12419,3597 Z"/>
         <path fill="none" stroke="rgb(0,0,0)" stroke-width="49" stroke-linejoin="round" d="M 12265,3284 C 12351,3284 12417,3352 12417,3440 12417,3528 12351,3596 12265,3596 12179,3596 12114,3528 12114,3440 12114,3352 12179,3284 12265,3284 Z"/>
        </g>
       </g>
       <g class="com.sun.star.drawing.OpenBezierShape">
        <g id="id10">
         <path fill="none" stroke="rgb(0,0,0)" stroke-width="49" stroke-linejoin="round" d="M 11550,3984 C 11788,4272 12006,4353 12331,3941"/>
        </g>
       </g>
      </g>
     </g>
    </g>
   </g>
  </g>
 </g>
</svg>