<?xml version="1.0" encoding="UTF-8"?>

<svg version="1.2" baseProfile="tiny" width="43.5mm" height="24.31mm" viewBox="11676 9294 4350 2431" preserveAspectRatio="xMidYMid" fill-rule="evenodd" stroke-width="28.222" stroke-linejoin="round" xmlns="http://www.w3.org/2000/svg" xmlns:ooo="http://xml.openoffice.org/svg/export" xmlns:xlink="http://www.w3.org/1999/xlink" xml:space="preserve">
 <defs class="ClipPathGroup">
  <clipPath id="presentation_clip_path" clipPathUnits="userSpaceOnUse">
   <rect x="11676" y="9294" width="4350" height="2431"/>
  </clipPath>
 </defs>
 <defs class="TextShapeIndex">
  <g ooo:slide="id1" ooo:id-list="id3 id4 id5 id6 id7 id8 id9"/>
 </defs>
 <defs class="EmbeddedBulletChars">
  <g id="bullet-char-template(57356)" transform="scale(0.00048828125,-0.00048828125)">
   <path d="M 580,1141 L 1163,571 580,0 -4,571 580,1141 Z"/>
  </g>
  <g id="bullet-char-template(57354)" transform="scale(0.00048828125,-0.00048828125)">
   <path d="M 8,1128 L 1137,1128 1137,0 8,0 8,1128 Z"/>
  </g>
  <g id="bullet-char-template(10146)" transform="scale(0.00048828125,-0.00048828125)">
   <path d="M 174,0 L 602,739 174,1481 1456,739 174,0 Z M 1358,739 L 309,1346 659,739 1358,739 Z"/>
  </g>
  <g id="bullet-char-template(10132)" transform="scale(0.00048828125,-0.00048828125)">
   <path d="M 2015,739 L 1276,0 717,0 1260,543 174,543 174,936 1260,936 717,1481 1274,1481 2015,739 Z"/>
  </g>
  <g id="bullet-char-template(10007)" transform="scale(0.00048828125,-0.00048828125)">
   <path d="M 0,-2 C -7,14 -16,27 -25,37 L 356,567 C 262,823 215,952 215,954 215,979 228,992 255,992 264,992 276,990 289,987 310,991 331,999 354,1012 L 381,999 492,748 772,1049 836,1024 860,1049 C 881,1039 901,1025 922,1006 886,937 835,863 770,784 769,783 710,716 594,584 L 774,223 C 774,196 753,168 711,139 L 727,119 C 717,90 699,76 672,76 641,76 570,178 457,381 L 164,-76 C 142,-110 111,-127 72,-127 30,-127 9,-110 8,-76 1,-67 -2,-52 -2,-32 -2,-23 -1,-13 0,-2 Z"/>
  </g>
  <g id="bullet-char-template(10004)" transform="scale(0.00048828125,-0.00048828125)">
   <path d="M 285,-33 C 182,-33 111,30 74,156 52,228 41,333 41,471 41,549 55,616 82,672 116,743 169,778 240,778 293,778 328,747 346,684 L 369,508 C 377,444 397,411 428,410 L 1163,1116 C 1174,1127 1196,1133 1229,1133 1271,1133 1292,1118 1292,1087 L 1292,965 C 1292,929 1282,901 1262,881 L 442,47 C 390,-6 338,-33 285,-33 Z"/>
  </g>
  <g id="bullet-char-template(9679)" transform="scale(0.00048828125,-0.00048828125)">
   <path d="M 813,0 C 632,0 489,54 383,161 276,268 223,411 223,592 223,773 276,916 383,1023 489,1130 632,1184 813,1184 992,1184 1136,1130 1245,1023 1353,916 1407,772 1407,592 1407,412 1353,268 1245,161 1136,54 992,0 813,0 Z"/>
  </g>
  <g id="bullet-char-template(8226)" transform="scale(0.00048828125,-0.00048828125)">
   <path d="M 346,457 C 273,457 209,483 155,535 101,586 74,649 74,723 74,796 101,859 155,911 209,963 273,989 346,989 419,989 480,963 531,910 582,859 608,796 608,723 608,648 583,586 532,535 482,483 420,457 346,457 Z"/>
  </g>
  <g id="bullet-char-template(8211)" transform="scale(0.00048828125,-0.00048828125)">
   <path d="M -4,459 L 1135,459 1135,606 -4,606 -4,459 Z"/>
  </g>
 </defs>
 <defs class="TextEmbeddedBitmaps"/>
 <g class="SlideGroup">
  <g>
   <g id="id1" class="Slide" clip-path="url(#presentation_clip_path)">
    <g class="Page">
     <g class="com.sun.star.drawing.CustomShape">
      <g id="id3">
       <path fill="rgb(255,255,255)" stroke="none" d="M 14123,9319 C 15187,9319 16000,9680 16000,10154 16000,10628 15187,10990 14123,10990 13059,10990 12247,10628 12247,10154 12247,9680 13059,9319 14123,9319 Z M 12247,9319 L 12247,9319 Z M 16001,10991 L 16001,10991 Z"/>
       <path fill="none" stroke="rgb(0,0,0)" stroke-width="49" stroke-linejoin="round" d="M 14123,9319 C 15187,9319 16000,9680 16000,10154 16000,10628 15187,10990 14123,10990 13059,10990 12247,10628 12247,10154 12247,9680 13059,9319 14123,9319 Z"/>
      </g>
     </g>
     <g class="com.sun.star.drawing.CustomShape">
      <g id="id4">
       <path fill="rgb(255,255,255)" stroke="none" d="M 12979,10550 C 12939,10550 12900,10589 12900,10629 L 12900,11621 C 12900,11660 12939,11700 12979,11700 L 13299,11700 C 13338,11700 13378,11660 13378,11621 L 13378,10629 C 13378,10589 13338,10550 13299,10550 L 12979,10550 Z M 12900,10550 L 12900,10550 Z M 13379,11701 L 13379,11701 Z"/>
       <path fill="none" stroke="rgb(0,0,0)" stroke-width="49" stroke-linejoin="round" d="M 12979,10550 C 12939,10550 12900,10589 12900,10629 L 12900,11621 C 12900,11660 12939,11700 12979,11700 L 13299,11700 C 13338,11700 13378,11660 13378,11621 L 13378,10629 C 13378,10589 13338,10550 13299,10550 L 12979,10550 Z"/>
      </g>
     </g>
     <g class="com.sun.star.drawing.CustomShape">
      <g id="id5">
       <path fill="rgb(255,255,255)" stroke="none" d="M 14946,10546 C 14906,10546 14867,10585 14867,10625 L 14867,11618 C 14867,11658 14906,11698 14946,11698 L 15266,11698 C 15305,11698 15345,11658 15345,11618 L 15345,10625 C 15345,10585 15305,10546 15266,10546 L 14946,10546 Z M 14867,10546 L 14867,10546 Z M 15346,11698 L 15346,11698 Z"/>
       <path fill="none" stroke="rgb(0,0,0)" stroke-width="49" stroke-linejoin="round" d="M 14946,10546 C 14906,10546 14867,10585 14867,10625 L 14867,11618 C 14867,11658 14906,11698 14946,11698 L 15266,11698 C 15305,11698 15345,11658 15345,11618 L 15345,10625 C 15345,10585 15305,10546 15266,10546 L 14946,10546 Z"/>
      </g>
     </g>
     <g class="Group">
      <g class="com.sun.star.drawing.CustomShape">
       <g id="id6">
        <path fill="rgb(255,255,255)" stroke="none" d="M 11820,9823 C 11760,9823 11700,9883 11700,9943 L 11700,10425 C 11700,10485 11760,10546 11820,10546 L 12302,10546 C 12362,10546 12423,10485 12423,10425 L 12423,9943 C 12423,9883 12362,9823 12302,9823 L 11820,9823 Z M 11700,9823 L 11700,9823 Z M 12423,10546 L 12423,10546 Z"/>
        <path fill="none" stroke="rgb(0,0,0)" stroke-width="49" stroke-linejoin="round" d="M 11820,9823 C 11760,9823 11700,9883 11700,9943 L 11700,10425 C 11700,10485 11760,10546 11820,10546 L 12302,10546 C 12362,10546 12423,10485 12423,10425 L 12423,9943 C 12423,9883 12362,9823 12302,9823 L 11820,9823 Z"/>
       </g>
      </g>
      <g class="Group">
       <g class="com.sun.star.drawing.CustomShape">
        <g id="id7">
         <path fill="rgb(255,255,255)" stroke="none" d="M 11877,10008 C 11918,10008 11950,10039 11950,10078 11950,10117 11918,10148 11877,10148 11836,10148 11805,10117 11805,10078 11805,10039 11836,10008 11877,10008 Z M 11805,10008 L 11805,10008 Z M 11952,10149 L 11952,10149 Z"/>
         <path fill="none" stroke="rgb(0,0,0)" stroke-width="49" stroke-linejoin="round" d="M 11877,10008 C 11918,10008 11950,10039 11950,10078 11950,10117 11918,10148 11877,10148 11836,10148 11805,10117 11805,10078 11805,10039 11836,10008 11877,10008 Z"/>
        </g>
       </g>
       <g class="com.sun.star.drawing.CustomShape">
        <g id="id8">
         <path fill="rgb(255,255,255)" stroke="none" d="M 12211,9994 C 12252,9994 12285,10024 12285,10064 12285,10104 12252,10135 12211,10135 12170,10135 12138,10104 12138,10064 12138,10024 12170,9994 12211,9994 Z M 12138,9994 L 12138,9994 Z M 12286,10136 L 12286,10136 Z"/>
         <path fill="none" stroke="rgb(0,0,0)" stroke-width="49" stroke-linejoin="round" d="M 12211,9994 C 12252,9994 12285,10024 12285,10064 12285,10104 12252,10135 12211,10135 12170,10135 12138,10104 12138,10064 12138,10024 12170,9994 12211,9994 Z"/>
        </g>
       </g>
       <g class="com.sun.star.drawing.OpenBezierShape">
        <g id="id9">
         <path fill="none" stroke="rgb(0,0,0)" stroke-width="49" stroke-linejoin="round" d="M 11867,10311 C 11982,10440 12087,10476 12244,10291"/>
        </g>
       </g>
      </g>
     </g>
    </g>
   </g>
  </g>
 </g>
</svg>