<?xml version="1.0" encoding="UTF-8"?>

<svg version="1.2" baseProfile="tiny" width="50.51mm" height="37.03mm" viewBox="2028 1823 5051 3703" preserveAspectRatio="xMidYMid" fill-rule="evenodd" stroke-width="28.222" stroke-linejoin="round" xmlns="http://www.w3.org/2000/svg" xmlns:ooo="http://xml.openoffice.org/svg/export" xmlns:xlink="http://www.w3.org/1999/xlink" xml:space="preserve">
 <defs class="ClipPathGroup">
  <clipPath id="presentation_clip_path" clipPathUnits="userSpaceOnUse">
   <rect x="2028" y="1823" width="5051" height="3703"/>
  </clipPath>
 </defs>
 <defs class="TextShapeIndex">
  <g ooo:slide="id1" ooo:id-list="id3 id4 id5 id6 id7 id8 id9 id10 id11"/>
 </defs>
 <defs class="EmbeddedBulletChars">
  <g id="bullet-char-template(57356)" transform="scale(0.00048828125,-0.00048828125)">
   <path d="M 580,1141 L 1163,571 580,0 -4,571 580,1141 Z"/>
  </g>
  <g id="bullet-char-template(57354)" transform="scale(0.00048828125,-0.00048828125)">
   <path d="M 8,1128 L 1137,1128 1137,0 8,0 8,1128 Z"/>
  </g>
  <g id="bullet-char-template(10146)" transform="scale(0.00048828125,-0.00048828125)">
   <path d="M 174,0 L 602,739 174,1481 1456,739 174,0 Z M 1358,739 L 309,1346 659,739 1358,739 Z"/>
  </g>
  <g id="bullet-char-template(10132)" transform="scale(0.00048828125,-0.00048828125)">
   <path d="M 2015,739 L 1276,0 717,0 1260,543 174,543 174,936 1260,936 717,1481 1274,1481 2015,739 Z"/>
  </g>
  <g id="bullet-char-template(10007)" transform="scale(0.00048828125,-0.00048828125)">
   <path d="M 0,-2 C -7,14 -16,27 -25,37 L 356,567 C 262,823 215,952 215,954 215,979 228,992 255,992 264,992 276,990 289,987 310,991 331,999 354,1012 L 381,999 492,748 772,1049 836,1024 860,1049 C 881,1039 901,1025 922,1006 886,937 835,863 770,784 769,783 710,716 594,584 L 774,223 C 774,196 753,168 711,139 L 727,119 C 717,90 699,76 672,76 641,76 570,178 457,381 L 164,-76 C 142,-110 111,-127 72,-127 30,-127 9,-110 8,-76 1,-67 -2,-52 -2,-32 -2,-23 -1,-13 0,-2 Z"/>
  </g>
  <g id="bullet-char-template(10004)" transform="scale(0.00048828125,-0.00048828125)">
   <path d="M 285,-33 C 182,-33 111,30 74,156 52,228 41,333 41,471 41,549 55,616 82,672 116,743 169,778 240,778 293,778 328,747 346,684 L 369,508 C 377,444 397,411 428,410 L 1163,1116 C 1174,1127 1196,1133 1229,1133 1271,1133 1292,1118 1292,1087 L 1292,965 C 1292,929 1282,901 1262,881 L 442,47 C 390,-6 338,-33 285,-33 Z"/>
  </g>
  <g id="bullet-char-template(9679)" transform="scale(0.00048828125,-0.00048828125)">
   <path d="M 813,0 C 632,0 489,54 383,161 276,268 223,411 223,592 223,773 276,916 383,1023 489,1130 632,1184 813,1184 992,1184 1136,1130 1245,1023 1353,916 1407,772 1407,592 1407,412 1353,268 1245,161 1136,54 992,0 813,0 Z"/>
  </g>
  <g id="bullet-char-template(8226)" transform="scale(0.00048828125,-0.00048828125)">
   <path d="M 346,457 C 273,457 209,483 155,535 101,586 74,649 74,723 74,796 101,859 155,911 209,963 273,989 346,989 419,989 480,963 531,910 582,859 608,796 608,723 608,648 583,586 532,535 482,483 420,457 346,457 Z"/>
  </g>
  <g id="bullet-char-template(8211)" transform="scale(0.00048828125,-0.00048828125)">
   <path d="M -4,459 L 1135,459 1135,606 -4,606 -4,459 Z"/>
  </g>
 </defs>
 <defs class="TextEmbeddedBitmaps"/>
 <g class="SlideGroup">
  <g>
   <g id="id1" class="Slide" clip-path="url(#presentation_clip_path)">
    <g class="Page">
     <g class="com.sun.star.drawing.CustomShape">
      <g id="id3">
       <path fill="rgb(255,255,255)" stroke="none" d="M 5176,3119 C 6240,3119 7053,3480 7053,3954 7053,4428 6240,4790 5176,4790 4112,4790 3300,4428 3300,3954 3300,3480 4112,3119 5176,3119 Z M 3300,3119 L 3300,3119 Z M 7054,4791 L 7054,4791 Z"/>
       <path fill="none" stroke="rgb(0,0,0)" stroke-width="49" stroke-linejoin="round" d="M 5176,3119 C 6240,3119 7053,3480 7053,3954 7053,4428 6240,4790 5176,4790 4112,4790 3300,4428 3300,3954 3300,3480 4112,3119 5176,3119 Z"/>
      </g>
     </g>
     <g class="com.sun.star.drawing.CustomShape">
      <g id="id4">
       <path fill="rgb(255,255,255)" stroke="none" d="M 4032,4350 C 3992,4350 3953,4389 3953,4429 L 3953,5421 C 3953,5460 3992,5500 4032,5500 L 4352,5500 C 4391,5500 4431,5460 4431,5421 L 4431,4429 C 4431,4389 4391,4350 4352,4350 L 4032,4350 Z M 3953,4350 L 3953,4350 Z M 4432,5501 L 4432,5501 Z"/>
       <path fill="none" stroke="rgb(0,0,0)" stroke-width="49" stroke-linejoin="round" d="M 4032,4350 C 3992,4350 3953,4389 3953,4429 L 3953,5421 C 3953,5460 3992,5500 4032,5500 L 4352,5500 C 4391,5500 4431,5460 4431,5421 L 4431,4429 C 4431,4389 4391,4350 4352,4350 L 4032,4350 Z"/>
      </g>
     </g>
     <g class="com.sun.star.drawing.CustomShape">
      <g id="id5">
       <path fill="rgb(255,255,255)" stroke="none" d="M 5999,4346 C 5959,4346 5920,4385 5920,4425 L 5920,5418 C 5920,5458 5959,5498 5999,5498 L 6319,5498 C 6358,5498 6398,5458 6398,5418 L 6398,4425 C 6398,4385 6358,4346 6319,4346 L 5999,4346 Z M 5920,4346 L 5920,4346 Z M 6399,5498 L 6399,5498 Z"/>
       <path fill="none" stroke="rgb(0,0,0)" stroke-width="49" stroke-linejoin="round" d="M 5999,4346 C 5959,4346 5920,4385 5920,4425 L 5920,5418 C 5920,5458 5959,5498 5999,5498 L 6319,5498 C 6358,5498 6398,5458 6398,5418 L 6398,4425 C 6398,4385 6358,4346 6319,4346 L 5999,4346 Z"/>
      </g>
     </g>
     <g class="com.sun.star.drawing.CustomShape">
      <g id="id6">
       <path fill="rgb(255,255,255)" stroke="none" d="M 5182,3596 C 5035,3448 5244,3013 5666,2592 6088,2171 6524,1962 6672,2110 6819,2258 6610,2693 6188,3114 5766,3535 5330,3744 5182,3596 Z M 5443,3857 L 5443,3857 Z M 6411,1847 L 6411,1847 Z"/>
       <path fill="none" stroke="rgb(0,0,0)" stroke-width="49" stroke-linejoin="round" d="M 5182,3596 C 5035,3448 5244,3013 5666,2592 6088,2171 6524,1962 6672,2110 6819,2258 6610,2693 6188,3114 5766,3535 5330,3744 5182,3596 Z"/>
      </g>
     </g>
     <g class="Group">
      <g class="Group">
       <g class="com.sun.star.drawing.CustomShape">
        <g id="id7">
         <path fill="rgb(255,255,255)" stroke="none" d="M 2898,3037 C 3378,3037 3745,3403 3745,3883 3745,4363 3378,4730 2898,4730 2418,4730 2052,4363 2052,3883 2052,3403 2418,3037 2898,3037 Z M 2052,3037 L 2052,3037 Z M 3746,4731 L 3746,4731 Z"/>
         <path fill="none" stroke="rgb(0,0,0)" stroke-width="49" stroke-linejoin="round" d="M 2898,3037 C 3378,3037 3745,3403 3745,3883 3745,4363 3378,4730 2898,4730 2418,4730 2052,4363 2052,3883 2052,3403 2418,3037 2898,3037 Z"/>
        </g>
       </g>
       <g class="Group">
        <g class="com.sun.star.drawing.CustomShape">
         <g id="id8">
          <path fill="rgb(255,255,255)" stroke="none" d="M 2508,3471 C 2594,3471 2660,3538 2660,3626 2660,3714 2594,3781 2508,3781 2422,3781 2356,3714 2356,3626 2356,3538 2422,3471 2508,3471 Z M 2356,3471 L 2356,3471 Z M 2662,3783 L 2662,3783 Z"/>
          <path fill="none" stroke="rgb(0,0,0)" stroke-width="49" stroke-linejoin="round" d="M 2508,3471 C 2594,3471 2660,3538 2660,3626 2660,3714 2594,3781 2508,3781 2422,3781 2356,3714 2356,3626 2356,3538 2422,3471 2508,3471 Z"/>
         </g>
        </g>
        <g class="com.sun.star.drawing.CustomShape">
         <g id="id9">
          <path fill="rgb(255,255,255)" stroke="none" d="M 3202,3444 C 3288,3444 3354,3511 3354,3599 3354,3687 3288,3754 3202,3754 3116,3754 3051,3687 3051,3599 3051,3511 3116,3444 3202,3444 Z M 3051,3444 L 3051,3444 Z M 3356,3756 L 3356,3756 Z"/>
          <path fill="none" stroke="rgb(0,0,0)" stroke-width="49" stroke-linejoin="round" d="M 3202,3444 C 3288,3444 3354,3511 3354,3599 3354,3687 3288,3754 3202,3754 3116,3754 3051,3687 3051,3599 3051,3511 3116,3444 3202,3444 Z"/>
         </g>
        </g>
        <g class="com.sun.star.drawing.OpenBezierShape">
         <g id="id10">
          <path fill="none" stroke="rgb(0,0,0)" stroke-width="49" stroke-linejoin="round" d="M 2487,4144 C 2726,4432 2943,4512 3268,4100"/>
         </g>
        </g>
       </g>
      </g>
      <g class="com.sun.star.drawing.OpenBezierShape">
       <g id="id11">
        <path fill="none" stroke="rgb(0,0,0)" stroke-width="49" stroke-linejoin="round" d="M 2251,2696 C 2174,2970 2670,3195 2728,2978 2864,2466 2294,3034 2467,3195 2635,3352 3090,3307 3032,3022 2978,2760 2441,3146 2554,2718 L 2620,2501 2836,2501 2966,2588"/>
       </g>
      </g>
     </g>
    </g>
   </g>
  </g>
 </g>
</svg>