<?xml version="1.0" encoding="UTF-8"?>

<svg version="1.2" baseProfile="tiny" width="48.48mm" height="29.93mm" viewBox="11424 10874 4848 2993" preserveAspectRatio="xMidYMid" fill-rule="evenodd" stroke-width="28.222" stroke-linejoin="round" xmlns="http://www.w3.org/2000/svg" xmlns:ooo="http://xml.openoffice.org/svg/export" xmlns:xlink="http://www.w3.org/1999/xlink" xml:space="preserve">
 <defs class="ClipPathGroup">
  <clipPath id="presentation_clip_path" clipPathUnits="userSpaceOnUse">
   <rect x="11424" y="10874" width="4848" height="2993"/>
  </clipPath>
 </defs>
 <defs class="TextShapeIndex">
  <g ooo:slide="id1" ooo:id-list="id3 id4 id5 id6 id7 id8"/>
 </defs>
 <defs class="EmbeddedBulletChars">
  <g id="bullet-char-template(57356)" transform="scale(0.00048828125,-0.00048828125)">
   <path d="M 580,1141 L 1163,571 580,0 -4,571 580,1141 Z"/>
  </g>
  <g id="bullet-char-template(57354)" transform="scale(0.00048828125,-0.00048828125)">
   <path d="M 8,1128 L 1137,1128 1137,0 8,0 8,1128 Z"/>
  </g>
  <g id="bullet-char-template(10146)" transform="scale(0.00048828125,-0.00048828125)">
   <path d="M 174,0 L 602,739 174,1481 1456,739 174,0 Z M 1358,739 L 309,1346 659,739 1358,739 Z"/>
  </g>
  <g id="bullet-char-template(10132)" transform="scale(0.00048828125,-0.00048828125)">
   <path d="M 2015,739 L 1276,0 717,0 1260,543 174,543 174,936 1260,936 717,1481 1274,1481 2015,739 Z"/>
  </g>
  <g id="bullet-char-template(10007)" transform="scale(0.00048828125,-0.00048828125)">
   <path d="M 0,-2 C -7,14 -16,27 -25,37 L 356,567 C 262,823 215,952 215,954 215,979 228,992 255,992 264,992 276,990 289,987 310,991 331,999 354,1012 L 381,999 492,748 772,1049 836,1024 860,1049 C 881,1039 901,1025 922,1006 886,937 835,863 770,784 769,783 710,716 594,584 L 774,223 C 774,196 753,168 711,139 L 727,119 C 717,90 699,76 672,76 641,76 570,178 457,381 L 164,-76 C 142,-110 111,-127 72,-127 30,-127 9,-110 8,-76 1,-67 -2,-52 -2,-32 -2,-23 -1,-13 0,-2 Z"/>
  </g>
  <g id="bullet-char-template(10004)" transform="scale(0.00048828125,-0.00048828125)">
   <path d="M 285,-33 C 182,-33 111,30 74,156 52,228 41,333 41,471 41,549 55,616 82,672 116,743 169,778 240,778 293,778 328,747 346,684 L 369,508 C 377,444 397,411 428,410 L 1163,1116 C 1174,1127 1196,1133 1229,1133 1271,1133 1292,1118 1292,1087 L 1292,965 C 1292,929 1282,901 1262,881 L 442,47 C 390,-6 338,-33 285,-33 Z"/>
  </g>
  <g id="bullet-char-template(9679)" transform="scale(0.00048828125,-0.00048828125)">
   <path d="M 813,0 C 632,0 489,54 383,161 276,268 223,411 223,592 223,773 276,916 383,1023 489,1130 632,1184 813,1184 992,1184 1136,1130 1245,1023 1353,916 1407,772 1407,592 1407,412 1353,268 1245,161 1136,54 992,0 813,0 Z"/>
  </g>
  <g id="bullet-char-template(8226)" transform="scale(0.00048828125,-0.00048828125)">
   <path d="M 346,457 C 273,457 209,483 155,535 101,586 74,649 74,723 74,796 101,859 155,911 209,963 273,989 346,989 419,989 480,963 531,910 582,859 608,796 608,723 608,648 583,586 532,535 482,483 420,457 346,457 Z"/>
  </g>
  <g id="bullet-char-template(8211)" transform="scale(0.00048828125,-0.00048828125)">
   <path d="M -4,459 L 1135,459 1135,606 -4,606 -4,459 Z"/>
  </g>
 </defs>
 <defs class="TextEmbeddedBitmaps"/>
 <g class="SlideGroup">
  <g>
   <g id="id1" class="Slide" clip-path="url(#presentation_clip_path)">
    <g class="Page">
     <g class="com.sun.star.drawing.CustomShape">
      <g id="id3">
       <path fill="rgb(255,255,255)" stroke="none" d="M 14370,12170 C 15434,12170 16247,12531 16247,13005 16247,13479 15434,13841 14370,13841 13306,13841 12494,13479 12494,13005 12494,12531 13306,12170 14370,12170 Z M 12494,12170 L 12494,12170 Z M 16248,13842 L 16248,13842 Z"/>
       <path fill="none" stroke="rgb(0,0,0)" stroke-width="49" stroke-linejoin="round" d="M 14370,12170 C 15434,12170 16247,12531 16247,13005 16247,13479 15434,13841 14370,13841 13306,13841 12494,13479 12494,13005 12494,12531 13306,12170 14370,12170 Z"/>
      </g>
     </g>
     <g class="com.sun.star.drawing.CustomShape">
      <g id="id4">
       <path fill="rgb(255,255,255)" stroke="none" d="M 14376,12647 C 14229,12499 14438,12064 14860,11643 15282,11222 15718,11013 15866,11161 16013,11309 15804,11744 15382,12165 14960,12586 14524,12795 14376,12647 Z M 14637,12908 L 14637,12908 Z M 15605,10898 L 15605,10898 Z"/>
       <path fill="none" stroke="rgb(0,0,0)" stroke-width="49" stroke-linejoin="round" d="M 14376,12647 C 14229,12499 14438,12064 14860,11643 15282,11222 15718,11013 15866,11161 16013,11309 15804,11744 15382,12165 14960,12586 14524,12795 14376,12647 Z"/>
      </g>
     </g>
     <g class="Group">
      <g class="com.sun.star.drawing.CustomShape">
       <g id="id5">
        <path fill="rgb(255,255,255)" stroke="none" d="M 11698,12051 C 11573,12051 11449,12175 11449,12300 L 11449,13408 C 11449,13532 11573,13657 11698,13657 L 12697,13657 C 12821,13657 12946,13532 12946,13408 L 12946,12300 C 12946,12175 12821,12051 12697,12051 L 11698,12051 Z M 11449,12051 L 11449,12051 Z M 12947,13658 L 12947,13658 Z"/>
        <path fill="none" stroke="rgb(0,0,0)" stroke-width="49" stroke-linejoin="round" d="M 11698,12051 C 11573,12051 11449,12175 11449,12300 L 11449,13408 C 11449,13532 11573,13657 11698,13657 L 12697,13657 C 12821,13657 12946,13532 12946,13408 L 12946,12300 C 12946,12175 12821,12051 12697,12051 L 11698,12051 Z"/>
       </g>
      </g>
      <g class="Group">
       <g class="com.sun.star.drawing.CustomShape">
        <g id="id6">
         <path fill="rgb(255,255,255)" stroke="none" d="M 11818,12462 C 11904,12462 11970,12530 11970,12618 11970,12706 11904,12774 11818,12774 11732,12774 11667,12706 11667,12618 11667,12530 11732,12462 11818,12462 Z M 11667,12462 L 11667,12462 Z M 11972,12775 L 11972,12775 Z"/>
         <path fill="none" stroke="rgb(0,0,0)" stroke-width="49" stroke-linejoin="round" d="M 11818,12462 C 11904,12462 11970,12530 11970,12618 11970,12706 11904,12774 11818,12774 11732,12774 11667,12706 11667,12618 11667,12530 11732,12462 11818,12462 Z"/>
        </g>
       </g>
       <g class="com.sun.star.drawing.CustomShape">
        <g id="id7">
         <path fill="rgb(255,255,255)" stroke="none" d="M 12512,12435 C 12598,12435 12664,12503 12664,12591 12664,12679 12598,12747 12512,12747 12426,12747 12361,12679 12361,12591 12361,12503 12426,12435 12512,12435 Z M 12361,12435 L 12361,12435 Z M 12666,12748 L 12666,12748 Z"/>
         <path fill="none" stroke="rgb(0,0,0)" stroke-width="49" stroke-linejoin="round" d="M 12512,12435 C 12598,12435 12664,12503 12664,12591 12664,12679 12598,12747 12512,12747 12426,12747 12361,12679 12361,12591 12361,12503 12426,12435 12512,12435 Z"/>
        </g>
       </g>
       <g class="com.sun.star.drawing.OpenBezierShape">
        <g id="id8">
         <path fill="none" stroke="rgb(0,0,0)" stroke-width="49" stroke-linejoin="round" d="M 11797,13135 C 12035,13423 12253,13504 12578,13092"/>
        </g>
       </g>
      </g>
     </g>
    </g>
   </g>
  </g>
 </g>
</svg>