<?xml version="1.0" encoding="UTF-8"?>

<svg version="1.2" baseProfile="tiny" width="50.51mm" height="29.93mm" viewBox="2274 10974 5051 2993" preserveAspectRatio="xMidYMid" fill-rule="evenodd" stroke-width="28.222" stroke-linejoin="round" xmlns="http://www.w3.org/2000/svg" xmlns:ooo="http://xml.openoffice.org/svg/export" xmlns:xlink="http://www.w3.org/1999/xlink" xml:space="preserve">
 <defs class="ClipPathGroup">
  <clipPath id="presentation_clip_path" clipPathUnits="userSpaceOnUse">
   <rect x="2274" y="10974" width="5051" height="2993"/>
  </clipPath>
 </defs>
 <defs class="TextShapeIndex">
  <g ooo:slide="id1" ooo:id-list="id3 id4 id5 id6 id7 id8 id9"/>
 </defs>
 <defs class="EmbeddedBulletChars">
  <g id="bullet-char-template(57356)" transform="scale(0.00048828125,-0.00048828125)">
   <path d="M 580,1141 L 1163,571 580,0 -4,571 580,1141 Z"/>
  </g>
  <g id="bullet-char-template(57354)" transform="scale(0.00048828125,-0.00048828125)">
   <path d="M 8,1128 L 1137,1128 1137,0 8,0 8,1128 Z"/>
  </g>
  <g id="bullet-char-template(10146)" transform="scale(0.00048828125,-0.00048828125)">
   <path d="M 174,0 L 602,739 174,1481 1456,739 174,0 Z M 1358,739 L 309,1346 659,739 1358,739 Z"/>
  </g>
  <g id="bullet-char-template(10132)" transform="scale(0.00048828125,-0.00048828125)">
   <path d="M 2015,739 L 1276,0 717,0 1260,543 174,543 174,936 1260,936 717,1481 1274,1481 2015,739 Z"/>
  </g>
  <g id="bullet-char-template(10007)" transform="scale(0.00048828125,-0.00048828125)">
   <path d="M 0,-2 C -7,14 -16,27 -25,37 L 356,567 C 262,823 215,952 215,954 215,979 228,992 255,992 264,992 276,990 289,987 310,991 331,999 354,1012 L 381,999 492,748 772,1049 836,1024 860,1049 C 881,1039 901,1025 922,1006 886,937 835,863 770,784 769,783 710,716 594,584 L 774,223 C 774,196 753,168 711,139 L 727,119 C 717,90 699,76 672,76 641,76 570,178 457,381 L 164,-76 C 142,-110 111,-127 72,-127 30,-127 9,-110 8,-76 1,-67 -2,-52 -2,-32 -2,-23 -1,-13 0,-2 Z"/>
  </g>
  <g id="bullet-char-template(10004)" transform="scale(0.00048828125,-0.00048828125)">
   <path d="M 285,-33 C 182,-33 111,30 74,156 52,228 41,333 41,471 41,549 55,616 82,672 116,743 169,778 240,778 293,778 328,747 346,684 L 369,508 C 377,444 397,411 428,410 L 1163,1116 C 1174,1127 1196,1133 1229,1133 1271,1133 1292,1118 1292,1087 L 1292,965 C 1292,929 1282,901 1262,881 L 442,47 C 390,-6 338,-33 285,-33 Z"/>
  </g>
  <g id="bullet-char-template(9679)" transform="scale(0.00048828125,-0.00048828125)">
   <path d="M 813,0 C 632,0 489,54 383,161 276,268 223,411 223,592 223,773 276,916 383,1023 489,1130 632,1184 813,1184 992,1184 1136,1130 1245,1023 1353,916 1407,772 1407,592 1407,412 1353,268 1245,161 1136,54 992,0 813,0 Z"/>
  </g>
  <g id="bullet-char-template(8226)" transform="scale(0.00048828125,-0.00048828125)">
   <path d="M 346,457 C 273,457 209,483 155,535 101,586 74,649 74,723 74,796 101,859 155,911 209,963 273,989 346,989 419,989 480,963 531,910 582,859 608,796 608,723 608,648 583,586 532,535 482,483 420,457 346,457 Z"/>
  </g>
  <g id="bullet-char-template(8211)" transform="scale(0.00048828125,-0.00048828125)">
   <path d="M -4,459 L 1135,459 1135,606 -4,606 -4,459 Z"/>
  </g>
 </defs>
 <defs class="TextEmbeddedBitmaps"/>
 <g class="SlideGroup">
  <g>
   <g id="id1" class="Slide" clip-path="url(#presentation_clip_path)">
    <g class="Page">
     <g class="com.sun.star.drawing.CustomShape">
      <g id="id3">
       <path fill="rgb(255,0,0)" stroke="none" d="M 5423,12270 C 6487,12270 7300,12631 7300,13105 7300,13579 6487,13941 5423,13941 4359,13941 3547,13579 3547,13105 3547,12631 4359,12270 5423,12270 Z M 3547,12270 L 3547,12270 Z M 7301,13942 L 7301,13942 Z"/>
       <path fill="none" stroke="rgb(0,0,0)" stroke-width="49" stroke-linejoin="round" d="M 5423,12270 C 6487,12270 7300,12631 7300,13105 7300,13579 6487,13941 5423,13941 4359,13941 3547,13579 3547,13105 3547,12631 4359,12270 5423,12270 Z"/>
      </g>
     </g>
     <g class="com.sun.star.drawing.CustomShape">
      <g id="id4">
       <path fill="rgb(255,0,0)" stroke="none" d="M 5429,12747 C 5282,12599 5491,12164 5913,11743 6335,11322 6771,11113 6919,11261 7066,11409 6857,11844 6435,12265 6013,12686 5577,12895 5429,12747 Z M 5690,13008 L 5690,13008 Z M 6658,10998 L 6658,10998 Z"/>
       <path fill="none" stroke="rgb(0,0,0)" stroke-width="49" stroke-linejoin="round" d="M 5429,12747 C 5282,12599 5491,12164 5913,11743 6335,11322 6771,11113 6919,11261 7066,11409 6857,11844 6435,12265 6013,12686 5577,12895 5429,12747 Z"/>
      </g>
     </g>
     <g class="Group">
      <g class="Group">
       <g class="com.sun.star.drawing.CustomShape">
        <g id="id5">
         <path fill="rgb(255,0,0)" stroke="none" d="M 3145,12188 C 3625,12188 3992,12554 3992,13034 3992,13514 3625,13881 3145,13881 2665,13881 2299,13514 2299,13034 2299,12554 2665,12188 3145,12188 Z M 2299,12188 L 2299,12188 Z M 3993,13882 L 3993,13882 Z"/>
         <path fill="none" stroke="rgb(0,0,0)" stroke-width="49" stroke-linejoin="round" d="M 3145,12188 C 3625,12188 3992,12554 3992,13034 3992,13514 3625,13881 3145,13881 2665,13881 2299,13514 2299,13034 2299,12554 2665,12188 3145,12188 Z"/>
        </g>
       </g>
       <g class="Group">
        <g class="com.sun.star.drawing.CustomShape">
         <g id="id6">
          <path fill="rgb(255,0,0)" stroke="none" d="M 2755,12622 C 2841,12622 2907,12689 2907,12777 2907,12865 2841,12932 2755,12932 2669,12932 2603,12865 2603,12777 2603,12689 2669,12622 2755,12622 Z M 2603,12622 L 2603,12622 Z M 2909,12934 L 2909,12934 Z"/>
          <path fill="none" stroke="rgb(0,0,0)" stroke-width="49" stroke-linejoin="round" d="M 2755,12622 C 2841,12622 2907,12689 2907,12777 2907,12865 2841,12932 2755,12932 2669,12932 2603,12865 2603,12777 2603,12689 2669,12622 2755,12622 Z"/>
         </g>
        </g>
        <g class="com.sun.star.drawing.CustomShape">
         <g id="id7">
          <path fill="rgb(255,0,0)" stroke="none" d="M 3449,12595 C 3535,12595 3601,12662 3601,12750 3601,12838 3535,12905 3449,12905 3363,12905 3298,12838 3298,12750 3298,12662 3363,12595 3449,12595 Z M 3298,12595 L 3298,12595 Z M 3603,12907 L 3603,12907 Z"/>
          <path fill="none" stroke="rgb(0,0,0)" stroke-width="49" stroke-linejoin="round" d="M 3449,12595 C 3535,12595 3601,12662 3601,12750 3601,12838 3535,12905 3449,12905 3363,12905 3298,12838 3298,12750 3298,12662 3363,12595 3449,12595 Z"/>
         </g>
        </g>
        <g class="com.sun.star.drawing.OpenBezierShape">
         <g id="id8">
          <path fill="none" stroke="rgb(0,0,0)" stroke-width="49" stroke-linejoin="round" d="M 2734,13295 C 2973,13583 3190,13663 3515,13251"/>
         </g>
        </g>
       </g>
      </g>
      <g class="com.sun.star.drawing.OpenBezierShape">
       <g id="id9">
        <path fill="none" stroke="rgb(0,0,0)" stroke-width="49" stroke-linejoin="round" d="M 2498,11847 C 2421,12121 2917,12346 2975,12129 3111,11617 2541,12185 2714,12346 2882,12503 3337,12458 3279,12173 3225,11911 2688,12297 2801,11869 L 2867,11652 3083,11652 3213,11739"/>
       </g>
      </g>
     </g>
    </g>
   </g>
  </g>
 </g>
</svg>